<?xml version="1.0" encoding="UTF-8"?>
<svg xmlns="http://www.w3.org/2000/svg" xmlns:xlink="http://www.w3.org/1999/xlink" viewBox="0 0 3709.45 3709.45">
  <defs>
    <style>
      .cls-1 {
        fill: #f5d778;
      }

      .cls-1, .cls-2, .cls-3, .cls-4, .cls-5, .cls-6, .cls-7, .cls-8, .cls-9, .cls-10, .cls-11, .cls-12, .cls-13, .cls-14, .cls-15, .cls-16, .cls-17, .cls-18, .cls-19, .cls-20, .cls-21, .cls-22, .cls-23, .cls-24, .cls-25, .cls-26, .cls-27, .cls-28, .cls-29, .cls-30, .cls-31, .cls-32, .cls-33, .cls-34, .cls-35, .cls-36 {
        stroke-width: 0px;
      }

      .cls-2 {
        fill: url(#linear-gradient-2);
        opacity: .7;
      }

      .cls-2, .cls-10, .cls-21, .cls-24, .cls-25, .cls-33, .cls-37 {
        mix-blend-mode: multiply;
      }

      .cls-3, .cls-21 {
        fill: #6d6e71;
      }

      .cls-4 {
        fill: #ed1c24;
      }

      .cls-5 {
        fill: #fff315;
      }

      .cls-6 {
        fill: #ffe603;
      }

      .cls-7 {
        fill: #808285;
      }

      .cls-8, .cls-33 {
        fill: #58595b;
      }

      .cls-9 {
        fill: #e6e7e8;
      }

      .cls-38 {
        clip-path: url(#clippath-2);
      }

      .cls-10, .cls-20 {
        fill: #939598;
      }

      .cls-39 {
        isolation: isolate;
      }

      .cls-11 {
        fill: #3e4ec6;
      }

      .cls-13 {
        opacity: .5;
      }

      .cls-13, .cls-19, .cls-35, .cls-36 {
        fill: #fff;
      }

      .cls-14 {
        fill: #7144fc;
      }

      .cls-15 {
        fill: none;
      }

      .cls-16 {
        fill: #4f46e4;
      }

      .cls-17 {
        fill: #6603d8;
      }

      .cls-40 {
        clip-path: url(#clippath-1);
      }

      .cls-41 {
        clip-path: url(#clippath-4);
      }

      .cls-18 {
        fill: #709aa3;
      }

      .cls-22 {
        fill: #231f20;
      }

      .cls-23 {
        fill: #f1f2f2;
      }

      .cls-24 {
        fill: url(#linear-gradient);
      }

      .cls-42 {
        clip-path: url(#clippath);
      }

      .cls-25, .cls-27 {
        fill: #d1d3d4;
      }

      .cls-26 {
        fill: #bcbec0;
      }

      .cls-28 {
        fill: #5c66e5;
      }

      .cls-29 {
        fill: #414042;
      }

      .cls-43 {
        clip-path: url(#clippath-3);
      }

      .cls-30 {
        fill: #f4ce0f;
      }

      .cls-31 {
        fill: #8d8de2;
      }

      .cls-32 {
        fill: #f9e976;
      }

      .cls-44 {
        filter: url(#luminosity-noclip);
      }

      .cls-45 {
        mask: url(#mask-1);
      }

      .cls-46 {
        mask: url(#mask);
      }

      .cls-34 {
        fill: #be1e2d;
      }

      .cls-35 {
        opacity: .3;
      }

      .cls-36 {
        opacity: 0;
      }
    </style>
    <filter id="luminosity-noclip" x="133.59" y="2538.78" width="2615.84" height="1051.83" color-interpolation-filters="sRGB" filterUnits="userSpaceOnUse">
      <feFlood flood-color="#fff" result="bg"/>
      <feBlend in="SourceGraphic" in2="bg"/>
    </filter>
    <filter id="luminosity-noclip-2" x="133.59" y="-9610.87" width="2615.84" height="32766" color-interpolation-filters="sRGB" filterUnits="userSpaceOnUse">
      <feFlood flood-color="#fff" result="bg"/>
      <feBlend in="SourceGraphic" in2="bg"/>
    </filter>
    <mask id="mask-1" x="133.59" y="-9610.87" width="2615.84" height="32766" maskUnits="userSpaceOnUse"/>
    <linearGradient id="linear-gradient" x1="1441.51" y1="3590.61" x2="1441.51" y2="2538.78" gradientUnits="userSpaceOnUse">
      <stop offset="0" stop-color="#000"/>
      <stop offset=".08" stop-color="#080808"/>
      <stop offset=".22" stop-color="#202020"/>
      <stop offset=".39" stop-color="#474747"/>
      <stop offset=".6" stop-color="#7d7d7d"/>
      <stop offset=".82" stop-color="#c1c1c1"/>
      <stop offset="1" stop-color="#fff"/>
    </linearGradient>
    <mask id="mask" x="133.59" y="2538.78" width="2615.84" height="1051.83" maskUnits="userSpaceOnUse">
      <g class="cls-44">
        <g class="cls-45">
          <path class="cls-24" d="m2745.21,2920.12s0,0,0,.02c-2.11,6.19-4.85,11.63-7.85,16.33-.04.06-.07.12-.11.18-.88,1.37-1.79,2.66-2.7,3.91-.14.19-.27.4-.4.58-12.73,17.09-22.22,37.91-22.63,60.43h.28c1.04,0,1.89.98,1.89,2.2,0,.88-.51,1.49-1.14,1.84,5.99,14.17,6.65,30.39,6.65,47.71s-.66,33.53-6.65,47.7c.63.35,1.14.96,1.14,1.84,0,1.21-.84,2.19-1.87,2.19-1.43,43.45-11.93,67.42-106.65,67.42h-58.09c-23.1,0-45.6,6.91-64.86,19.67-18.01,11.94-36.79,23.55-56.03,34.87-2.02,1.19-4.02,2.39-6.05,3.57-4.45,2.59-8.95,5.13-13.45,7.68-2.55,1.45-5.09,2.9-7.66,4.34-4.37,2.44-8.76,4.85-13.17,7.26-.68.37-1.34.75-2.02,1.11v339.62h-1257.27v-219.03c-111.7-9.4-155.77-19.49-164.64-22.64-147.83-52.61-331.36-173.4-380.14-206.39-.85-.57-1.75-1.18-2.52-1.7-.5-.34-.88-.6-1.34-.91-1.08-.73-2.11-1.44-2.99-2.04-.12-.08-.21-.14-.33-.22-3.02-2.07-4.85-3.33-5.14-3.54h0c-.07-.05-.19-.13-.19-.13,0,0-.23-.04-.58-.1-.04,0-.04,0-.07-.01-.4-.07-.98-.17-1.78-.32-.02,0-.05,0-.08-.01-.76-.14-1.7-.31-2.78-.52-.08-.02-.14-.03-.22-.04-1.16-.22-2.5-.48-4.01-.78,0,0,0,0,0,0-3.04-.6-6.76-1.36-11.09-2.28-.08-.02-.15-.03-.23-.05-56.98-12.14-217.6-52.44-313.57-137.22,0,0,0,0-.01-.01-4.27-3.78-8.42-7.64-12.42-11.6,0,0,0,0,0,0-6.31-6.23-12.26-12.69-17.8-19.37-.09-.1-.17-.21-.26-.31-2.63-3.18-5.16-6.41-7.59-9.7-.14-.18-.28-.36-.41-.55-2.46-3.34-4.82-6.74-7.07-10.2-.18-.27-.34-.55-.52-.82-1.96-3.04-3.82-6.13-5.6-9.25-.36-.63-.73-1.26-1.08-1.89-1.89-3.4-3.69-6.83-5.36-10.33-.17-.35-.32-.72-.49-1.07-1.45-3.09-2.8-6.22-4.07-9.39-.37-.92-.74-1.84-1.09-2.77,0,0,0-.02-.01-.03-.09-.23-.19-.47-.28-.7-1.24-3.29-2.41-6.6-3.45-9.98,0-.02-.01-.04-.02-.06-.48-1.55-1.24-2.86-2.12-4.05-.15-.2-.28-.41-.44-.61-.88-1.07-1.92-2-3.06-2.83-.27-.19-.55-.38-.83-.56-1.15-.75-2.38-1.43-3.68-2.02-.37-.17-.76-.31-1.14-.46-.99-.41-2.01-.79-3.04-1.14-7.01-2.38-14.45-3.71-17.68-7.3,0,0,0,0,0,0-1.04-1.15-1.68-2.52-1.68-4.26-.81-36.36,5.85-87.97,17.7-129.23,0-.04.02-.07.03-.11.78-2.7,1.57-5.36,2.39-7.97,0-.02.01-.04.02-.05,3.31-10.51,6.97-20.17,10.94-28.52.03-.06.06-.12.09-.19.92-1.92,1.85-3.76,2.8-5.53.24-.44.48-.85.72-1.28.75-1.36,1.51-2.69,2.28-3.96.33-.55.67-1.06,1.01-1.58.69-1.08,1.38-2.13,2.09-3.13.39-.56.79-1.09,1.19-1.62.67-.89,1.34-1.74,2.02-2.55.43-.51.86-1.01,1.3-1.49.66-.73,1.33-1.42,2-2.07.46-.45.92-.89,1.38-1.3.67-.59,1.35-1.12,2.04-1.64.47-.35.94-.72,1.42-1.03.7-.46,1.42-.85,2.13-1.22.46-.25.93-.52,1.4-.73.78-.34,1.58-.58,2.37-.82.13-.04.25-.1.38-.13,7.22-8.71,17.09-15.9,30.16-18.17,20.13-61.18,71.34-104.67,131.39-104.67h78.1s.02,0,.03,0,.02,0,.03,0h3.1s.02,0,.03,0c59.78,0,110.79,43.11,131.11,103.85h298.01c18.67-55.81,63.24-96.74,116.73-103.01,4.73-.55,9.52-.84,14.37-.84h81.29c27.95,0,53.97,9.46,75.85,25.7,19.92-24.02,49.99-39.33,83.63-39.33h1040.03c20.49,0,39.58,5.78,55.94,15.64,50.04,9.12,91.26,48.73,109.03,101.84h8.77c19.74,0,39.33,3.46,57.88,10.24l77.35,31.42c1.36.55,2.65,1.2,3.98,1.79l74.82,16.66c33.29,6.46,60.97,30.14,71.42,62.4,10.91,33.71,14.43,74.07,15.04,114.01.16,10.39-1.52,19.46-4.21,27.33,0,0,0,0,0,0Z"/>
        </g>
      </g>
    </mask>
    <linearGradient id="linear-gradient-2" x1="1441.51" y1="3590.61" x2="1441.51" y2="2538.78" gradientUnits="userSpaceOnUse">
      <stop offset="0" stop-color="#fff"/>
      <stop offset=".16" stop-color="#f6f6f6"/>
      <stop offset=".42" stop-color="#dedfdf"/>
      <stop offset=".74" stop-color="#b7b9bb"/>
      <stop offset="1" stop-color="#939598"/>
    </linearGradient>
    <clipPath id="clippath">
      <path class="cls-12" d="m1075.7,2552.08h-81.29c-77.64,0-140.54-72.68-140.54-162.33s62.91-162.29,140.54-162.29h81.29c-77.64,0-140.54,72.68-140.54,162.29s62.91,162.33,140.54,162.33Z"/>
    </clipPath>
    <clipPath id="clippath-1">
      <path class="cls-12" d="m2309.07,2552.08h-81.29c-77.64,0-140.54-72.68-140.54-162.33s62.91-162.29,140.54-162.29h81.29c-77.64,0-140.54,72.68-140.54,162.29s62.91,162.33,140.54,162.33Z"/>
    </clipPath>
    <clipPath id="clippath-2">
      <path class="cls-15" d="m1971.74,295.15h0c0,28.55-23.15,51.7-51.7,51.7h-212.39c-28.55,0-51.7-23.15-51.7-51.7h0c0-40.1-32.5-72.6-72.6-72.6h-242.56c-39.24,0-71.04,31.81-71.04,71.04v2161.15c0,45.51,36.89,82.4,82.4,82.4h923.37c45.51,0,82.41-36.89,82.41-82.41V293.59c0-39.24-31.81-71.04-71.04-71.04h-242.56c-40.1,0-72.6,32.5-72.6,72.6Z"/>
    </clipPath>
    <clipPath id="clippath-3">
      <path class="cls-12" d="m1075.7,2552.08h-81.29c-77.64,0-140.54-72.68-140.54-162.33s62.91-162.29,140.54-162.29h81.29c-77.64,0-140.54,72.68-140.54,162.29s62.91,162.33,140.54,162.33Z"/>
    </clipPath>
    <clipPath id="clippath-4">
      <path class="cls-12" d="m2309.07,2552.08h-81.29c-77.64,0-140.54-72.68-140.54-162.33s62.91-162.29,140.54-162.29h81.29c-77.64,0-140.54,72.68-140.54,162.29s62.91,162.33,140.54,162.33Z"/>
    </clipPath>
  </defs>
  <g class="cls-39">
    <g id="Layer_2" data-name="Layer 2">
      <g id="pin">
        <g>
          <rect class="cls-36" width="3709.45" height="3709.45"/>
          <g class="cls-46">
            <path class="cls-2" d="m2745.21,2920.12s0,0,0,.02c-2.11,6.19-4.85,11.63-7.85,16.33-.04.06-.07.12-.11.18-.88,1.37-1.79,2.66-2.7,3.91-.14.19-.27.4-.4.58-12.73,17.09-22.22,37.91-22.63,60.43h.28c1.04,0,1.89.98,1.89,2.2,0,.88-.51,1.49-1.14,1.84,5.99,14.17,6.65,30.39,6.65,47.71s-.66,33.53-6.65,47.7c.63.35,1.14.96,1.14,1.84,0,1.21-.84,2.19-1.87,2.19-1.43,43.45-11.93,67.42-106.65,67.42h-58.09c-23.1,0-45.6,6.91-64.86,19.67-18.01,11.94-36.79,23.55-56.03,34.87-2.02,1.19-4.02,2.39-6.05,3.57-4.45,2.59-8.95,5.13-13.45,7.68-2.55,1.45-5.09,2.9-7.66,4.34-4.37,2.44-8.76,4.85-13.17,7.26-.68.37-1.34.75-2.02,1.11v339.62h-1257.27v-219.03c-111.7-9.4-155.77-19.49-164.64-22.64-147.83-52.61-331.36-173.4-380.14-206.39-.85-.57-1.75-1.18-2.52-1.7-.5-.34-.88-.6-1.34-.91-1.08-.73-2.11-1.44-2.99-2.04-.12-.08-.21-.14-.33-.22-3.02-2.07-4.85-3.33-5.14-3.54h0c-.07-.05-.19-.13-.19-.13,0,0-.23-.04-.58-.1-.04,0-.04,0-.07-.01-.4-.07-.98-.17-1.78-.32-.02,0-.05,0-.08-.01-.76-.14-1.7-.31-2.78-.52-.08-.02-.14-.03-.22-.04-1.16-.22-2.5-.48-4.01-.78,0,0,0,0,0,0-3.04-.6-6.76-1.36-11.09-2.28-.08-.02-.15-.03-.23-.05-56.98-12.14-217.6-52.44-313.57-137.22,0,0,0,0-.01-.01-4.27-3.78-8.42-7.64-12.42-11.6,0,0,0,0,0,0-6.31-6.23-12.26-12.69-17.8-19.37-.09-.1-.17-.21-.26-.31-2.63-3.18-5.16-6.41-7.59-9.7-.14-.18-.28-.36-.41-.55-2.46-3.34-4.82-6.74-7.07-10.2-.18-.27-.34-.55-.52-.82-1.96-3.04-3.82-6.13-5.6-9.25-.36-.63-.73-1.26-1.08-1.89-1.89-3.4-3.69-6.83-5.36-10.33-.17-.35-.32-.72-.49-1.07-1.45-3.09-2.8-6.22-4.07-9.39-.37-.92-.74-1.84-1.09-2.77,0,0,0-.02-.01-.03-.09-.23-.19-.47-.28-.7-1.24-3.29-2.41-6.6-3.45-9.98,0-.02-.01-.04-.02-.06-.48-1.55-1.24-2.86-2.12-4.05-.15-.2-.28-.41-.44-.61-.88-1.07-1.92-2-3.06-2.83-.27-.19-.55-.38-.83-.56-1.15-.75-2.38-1.43-3.68-2.02-.37-.17-.76-.31-1.14-.46-.99-.41-2.01-.79-3.04-1.14-7.01-2.38-14.45-3.71-17.68-7.3,0,0,0,0,0,0-1.04-1.15-1.68-2.52-1.68-4.26-.81-36.36,5.85-87.97,17.7-129.23,0-.04.02-.07.03-.11.78-2.7,1.57-5.36,2.39-7.97,0-.02.01-.04.02-.05,3.31-10.51,6.97-20.17,10.94-28.52.03-.06.06-.12.09-.19.92-1.92,1.85-3.76,2.8-5.53.24-.44.48-.85.72-1.28.75-1.36,1.51-2.69,2.28-3.96.33-.55.67-1.06,1.01-1.58.69-1.08,1.38-2.13,2.09-3.13.39-.56.79-1.09,1.19-1.62.67-.89,1.34-1.74,2.02-2.55.43-.51.86-1.01,1.3-1.49.66-.73,1.33-1.42,2-2.07.46-.45.92-.89,1.38-1.3.67-.59,1.35-1.12,2.04-1.64.47-.35.94-.72,1.42-1.03.7-.46,1.42-.85,2.13-1.22.46-.25.93-.52,1.4-.73.78-.34,1.58-.58,2.37-.82.13-.04.25-.1.38-.13,7.22-8.71,17.09-15.9,30.16-18.17,20.13-61.18,71.34-104.67,131.39-104.67h78.1s.02,0,.03,0,.02,0,.03,0h3.1s.02,0,.03,0c59.78,0,110.79,43.11,131.11,103.85h298.01c18.67-55.81,63.24-96.74,116.73-103.01,4.73-.55,9.52-.84,14.37-.84h81.29c27.95,0,53.97,9.46,75.85,25.7,19.92-24.02,49.99-39.33,83.63-39.33h1040.03c20.49,0,39.58,5.78,55.94,15.64,50.04,9.12,91.26,48.73,109.03,101.84h8.77c19.74,0,39.33,3.46,57.88,10.24l77.35,31.42c1.36.55,2.65,1.2,3.98,1.79l74.82,16.66c33.29,6.46,60.97,30.14,71.42,62.4,10.91,33.71,14.43,74.07,15.04,114.01.16,10.39-1.52,19.46-4.21,27.33,0,0,0,0,0,0Z"/>
          </g>
          <g>
            <ellipse class="cls-33" cx="1441.51" cy="2552.08" rx="1305.81" ry="13.63"/>
            <g>
              <g>
                <path class="cls-22" d="m1527.01,2389.75c0-89.61,62.9-162.29,140.54-162.29h-81.29c-77.64,0-140.55,72.68-140.55,162.29s62.91,162.33,140.55,162.33h81.29c-77.64,0-140.54-72.68-140.54-162.33Z"/>
                <path class="cls-20" d="m1664.4,2227.46c79.38,0,143.7,72.68,143.7,162.29s-64.32,162.33-143.7,162.33-143.7-72.68-143.7-162.33,64.32-162.29,143.7-162.29Z"/>
                <path class="cls-12" d="m1667.55,2227.46c77.64,0,140.55,72.68,140.55,162.29s-62.91,162.33-140.55,162.33-140.54-72.68-140.54-162.33,62.91-162.29,140.54-162.29Z"/>
              </g>
              <g>
                <path class="cls-22" d="m293.64,2389.75c0-89.61,62.9-162.29,140.54-162.29h-81.29c-77.64,0-140.55,72.68-140.55,162.29s62.91,162.33,140.55,162.33h81.29c-77.64,0-140.54-72.68-140.54-162.33Z"/>
                <path class="cls-20" d="m431.03,2227.46c79.38,0,143.7,72.68,143.7,162.29s-64.32,162.33-143.7,162.33-143.7-72.68-143.7-162.33,64.32-162.29,143.7-162.29Z"/>
                <path class="cls-12" d="m434.19,2227.46c77.64,0,140.55,72.68,140.55,162.29s-62.91,162.33-140.55,162.33-140.54-72.68-140.54-162.33,62.91-162.29,140.54-162.29Z"/>
              </g>
            </g>
            <path class="cls-16" d="m2003.38,2128.19H313.57c-76.71,0-138.88,62.41-138.88,139.4v122.18c0,11.77,14.21,58.46,55.59,58.46h2218.67c19.74,0,39.33-3.46,57.88-10.24l77.35-31.42c42.74-17.36,70.71-59.02,70.71-105.3v-173.08h-651.5Z"/>
            <g>
              <g class="cls-39">
                <path d="m1075.7,2552.08h-81.29c-77.64,0-140.54-72.68-140.54-162.33s62.91-162.29,140.54-162.29h81.29c-77.64,0-140.54,72.68-140.54,162.29s62.91,162.33,140.54,162.33Z"/>
                <g class="cls-42">
                  <g class="cls-39">
                    <path class="cls-12" d="m935.15,2389.75c0-8.73.63-17.29,1.78-25.64h-81.29c-1.15,8.36-1.78,16.91-1.78,25.64,0,89.65,62.91,162.33,140.54,162.33h81.29c-77.64,0-140.54-72.68-140.54-162.33Z"/>
                    <path class="cls-12" d="m887.42,2284.5c-10.41,14.1-18.77,30.28-24.54,47.92-3.31,10.11-5.73,20.72-7.24,31.68h81.29c1.51-10.96,3.93-21.57,7.24-31.68h0c5.77-17.64,14.13-33.82,24.54-47.92h-81.29Z"/>
                    <path class="cls-12" d="m914.57,2256.19c-10.08,8.05-19.21,17.57-27.14,28.31h81.29c7.93-10.74,17.06-20.26,27.14-28.31h-81.29Z"/>
                    <path class="cls-12" d="m1075.7,2227.46h-81.29c-29.66,0-57.17,10.62-79.84,28.73h81.29c22.67-18.11,50.18-28.73,79.84-28.73Z"/>
                  </g>
                </g>
              </g>
              <path class="cls-20" d="m1072.54,2227.46c79.38,0,143.7,72.68,143.7,162.29s-64.32,162.33-143.7,162.33-143.7-72.68-143.7-162.33,64.32-162.29,143.7-162.29Z"/>
              <path class="cls-29" d="m1075.7,2227.46c77.64,0,140.55,72.68,140.55,162.29s-62.91,162.33-140.55,162.33-140.54-72.68-140.54-162.33,62.91-162.29,140.54-162.29Z"/>
              <path class="cls-22" d="m1075.7,2269.06c57.74,0,104.53,54.05,104.53,120.7s-46.78,120.73-104.53,120.73-104.53-54.05-104.53-120.73,46.78-120.7,104.53-120.7Z"/>
              <path class="cls-12" d="m1075.7,2282.69c51.22,0,92.73,47.95,92.73,107.07s-41.5,107.1-92.73,107.1-92.72-47.95-92.72-107.1,41.5-107.07,92.72-107.07Z"/>
              <path class="cls-9" d="m1154.77,2459.92h0c18.57-27.84,24.6-63.16,18.11-95.92,0-.01,0-.02,0-.03h0c-1.92-9.7-4.85-19.17-8.97-28.14h0c-1.24-2.71-2.63-5.35-4.07-7.96h0c-3.82-6.92-8.3-13.51-13.53-19.56-13.98-16.16-31.1-26.41-49.08-30.96h0c-11.07-2.8-22.46-3.4-33.68-1.8h0c-21.28,3.04-41.88,13.88-58.22,32.76-13.47,15.56-22.16,34.5-26.31,54.43h0s0,.01,0,.02c-.62,2.99-1.15,5.99-1.56,9.02h0c-4.78,35.15,4.44,72.35,27.88,99.43,6.5,7.51,13.71,13.65,21.33,18.65.5.32.97.69,1.47,1h0c29.41,18.54,65.15,18.72,94.67.49h0c.54-.34,1.06-.75,1.61-1.1,7.83-5.06,15.24-11.34,21.9-19.04,1.18-1.36,2.21-2.82,3.31-4.23h0s0,0,0-.01c1.8-2.3,3.53-4.63,5.14-7.05,0,0,0,0,0,0Zm-4.06-4.69l-51.1-59.05,69.21-21.43c3.35,27.91-2.68,56.96-18.11,80.48Zm-8.43-142.29c4.75,5.49,8.86,11.44,12.38,17.7l-64.1,34.54,6.15-81.24c16.69,4.38,32.57,13.98,45.56,29Zm-132.95,0c13.32-15.4,29.67-25.13,46.82-29.35l6.12,80.8-64.69-34.86c3.38-5.85,7.29-11.42,11.76-16.59Zm-26.37,60.55l68.99,21.36-51.55,59.57c-15.28-23.73-21.09-52.96-17.44-80.93Zm48.42,111.99l43.92-72.49,44.22,72.97c-27.53,16.72-60.71,16.53-88.14-.49Zm110.9-18.91c-4.91,5.68-10.26,10.54-15.88,14.69l-45.33-74.81-5.14,4.16-5.98-4.84-45.45,75.01c-5.37-4.05-10.46-8.77-15.17-14.21-1.38-1.6-2.61-3.3-3.88-4.96l55.76-64.44-3.05-3.53,1.38-5.96-75.06-23.24c1.92-9.31,4.89-18.39,8.97-26.96l70.1,37.77,1.83-4.52,5.32-.54-6.67-88.11c8.25-1.2,16.58-1.12,24.81.21l-6.66,88,4.3.43,2.26,5.6,69.99-37.72c3.98,8.61,6.82,17.73,8.65,27.06l-74.8,23.16,1.12,4.82-3.78,4.37,55.67,64.33c-1.1,1.41-2.13,2.87-3.31,4.23Z"/>
              <g>
                <g class="cls-37">
                  <path class="cls-20" d="m1070.09,2354.56c16.84,0,30.49,15.77,30.49,35.21s-13.65,66.41-30.49,66.41-30.49-46.96-30.49-66.41,13.65-35.21,30.49-35.21Z"/>
                </g>
                <g>
                  <path class="cls-12" d="m1070.09,2354.56c16.84,0,30.49,15.77,30.49,35.21s-13.65,35.22-30.49,35.22-30.49-15.77-30.49-35.22,13.65-35.21,30.49-35.21Z"/>
                  <path class="cls-19" d="m1083.1,2354.56c16.84,0,30.49,15.77,30.49,35.21s-13.65,35.22-30.49,35.22-30.49-15.77-30.49-35.22,13.65-35.21,30.49-35.21Z"/>
                </g>
              </g>
              <path class="cls-19" d="m1075.8,2274.68c-55.03,0-99.63,51.55-99.63,115.1s44.59,115.13,99.63,115.13,99.63-51.55,99.63-115.13-44.59-115.1-99.63-115.1Zm0,222.14c-51.16,0-92.62-47.92-92.62-107.03s41.45-107,92.62-107,92.62,47.92,92.62,107-41.46,107.03-92.62,107.03Z"/>
              <path class="cls-21" d="m1075.7,2282.69c-2.27,0-4.49.21-6.72.39,48.08,3.99,86.01,50.17,86.01,106.68s-37.94,102.72-86.01,106.7c2.23.19,4.45.39,6.72.39,51.22,0,92.72-47.95,92.72-107.1s-41.5-107.07-92.72-107.07Z"/>
            </g>
            <g>
              <g class="cls-39">
                <path d="m2309.07,2552.08h-81.29c-77.64,0-140.54-72.68-140.54-162.33s62.91-162.29,140.54-162.29h81.29c-77.64,0-140.54,72.68-140.54,162.29s62.91,162.33,140.54,162.33Z"/>
                <g class="cls-40">
                  <g class="cls-39">
                    <path class="cls-12" d="m2168.52,2389.75c0-8.73.63-17.29,1.78-25.64h-81.29c-1.15,8.36-1.78,16.91-1.78,25.64,0,89.65,62.91,162.33,140.54,162.33h81.29c-77.64,0-140.54-72.68-140.54-162.33Z"/>
                    <path class="cls-12" d="m2120.79,2284.5c-10.41,14.1-18.77,30.28-24.54,47.92-3.31,10.11-5.73,20.72-7.24,31.68h81.29c1.51-10.96,3.93-21.57,7.24-31.68h0c5.77-17.64,14.13-33.82,24.54-47.92h-81.29Z"/>
                    <path class="cls-12" d="m2147.94,2256.19c-10.08,8.05-19.21,17.57-27.14,28.31h81.29c7.93-10.74,17.06-20.26,27.14-28.31h-81.29Z"/>
                    <path class="cls-12" d="m2309.07,2227.46h-81.29c-29.66,0-57.17,10.62-79.84,28.73h81.29c22.67-18.11,50.18-28.73,79.84-28.73Z"/>
                  </g>
                </g>
              </g>
              <path class="cls-20" d="m2305.91,2227.46c79.38,0,143.7,72.68,143.7,162.29s-64.32,162.33-143.7,162.33-143.7-72.68-143.7-162.33,64.32-162.29,143.7-162.29Z"/>
              <path class="cls-29" d="m2309.07,2227.46c77.64,0,140.55,72.68,140.55,162.29s-62.91,162.33-140.55,162.33-140.54-72.68-140.54-162.33,62.91-162.29,140.54-162.29Z"/>
              <path class="cls-22" d="m2309.07,2269.06c57.74,0,104.53,54.05,104.53,120.7s-46.78,120.73-104.53,120.73-104.53-54.05-104.53-120.73,46.78-120.7,104.53-120.7Z"/>
              <path class="cls-12" d="m2309.07,2282.69c51.22,0,92.73,47.95,92.73,107.07s-41.5,107.1-92.73,107.1-92.72-47.95-92.72-107.1,41.5-107.07,92.72-107.07Z"/>
              <path class="cls-9" d="m2388.13,2459.92h0c18.57-27.84,24.6-63.16,18.11-95.92,0-.01,0-.02,0-.03h0c-1.92-9.7-4.85-19.17-8.97-28.14h0c-1.24-2.71-2.63-5.35-4.07-7.96h0c-3.82-6.92-8.3-13.51-13.53-19.56-13.98-16.16-31.1-26.41-49.08-30.96h0c-11.07-2.8-22.46-3.4-33.68-1.8h0c-21.28,3.04-41.88,13.88-58.22,32.76-13.47,15.56-22.16,34.5-26.31,54.43h0s0,.01,0,.02c-.62,2.99-1.15,5.99-1.56,9.02h0c-4.78,35.15,4.44,72.35,27.88,99.43,6.5,7.51,13.71,13.65,21.33,18.65.5.32.97.69,1.47,1h0c29.41,18.54,65.15,18.72,94.67.49h0c.54-.34,1.06-.75,1.61-1.1,7.83-5.06,15.24-11.34,21.9-19.04,1.18-1.36,2.21-2.82,3.31-4.23h0s0,0,0-.01c1.8-2.3,3.53-4.63,5.14-7.05,0,0,0,0,0,0Zm-4.06-4.69l-51.1-59.05,69.21-21.43c3.35,27.91-2.68,56.96-18.11,80.48Zm-8.42-142.29c4.75,5.49,8.86,11.44,12.38,17.7l-64.1,34.54,6.15-81.24c16.69,4.38,32.57,13.98,45.56,29Zm-132.95,0c13.33-15.4,29.67-25.13,46.82-29.35l6.12,80.8-64.69-34.86c3.38-5.85,7.29-11.42,11.76-16.59Zm-26.37,60.55l68.99,21.36-51.55,59.57c-15.28-23.73-21.09-52.96-17.44-80.93Zm48.42,111.99l43.92-72.49,44.22,72.97c-27.53,16.72-60.71,16.53-88.14-.49Zm110.9-18.91c-4.91,5.68-10.26,10.54-15.88,14.69l-45.33-74.81-5.14,4.16-5.98-4.84-45.45,75.01c-5.37-4.05-10.46-8.77-15.17-14.21-1.38-1.6-2.6-3.3-3.88-4.96l55.76-64.44-3.05-3.53,1.38-5.96-75.06-23.24c1.92-9.31,4.89-18.39,8.97-26.96l70.1,37.77,1.83-4.52,5.32-.54-6.67-88.11c8.25-1.2,16.58-1.12,24.81.21l-6.66,88,4.3.43,2.26,5.6,69.99-37.72c3.98,8.61,6.82,17.73,8.65,27.06l-74.8,23.16,1.12,4.82-3.78,4.37,55.67,64.33c-1.1,1.41-2.13,2.87-3.31,4.23Z"/>
              <g>
                <g class="cls-37">
                  <path class="cls-20" d="m2303.46,2354.56c16.84,0,30.49,15.77,30.49,35.21s-13.65,66.41-30.49,66.41-30.49-46.96-30.49-66.41,13.65-35.21,30.49-35.21Z"/>
                </g>
                <g>
                  <path class="cls-12" d="m2303.46,2354.56c16.84,0,30.49,15.77,30.49,35.21s-13.65,35.22-30.49,35.22-30.49-15.77-30.49-35.22,13.65-35.21,30.49-35.21Z"/>
                  <path class="cls-19" d="m2316.47,2354.56c16.84,0,30.49,15.77,30.49,35.21s-13.65,35.22-30.49,35.22-30.49-15.77-30.49-35.22,13.65-35.21,30.49-35.21Z"/>
                </g>
              </g>
              <path class="cls-19" d="m2309.17,2274.68c-55.03,0-99.63,51.55-99.63,115.1s44.59,115.13,99.63,115.13,99.63-51.55,99.63-115.13-44.59-115.1-99.63-115.1Zm0,222.14c-51.16,0-92.62-47.92-92.62-107.03s41.45-107,92.62-107,92.62,47.92,92.62,107-41.46,107.03-92.62,107.03Z"/>
              <path class="cls-21" d="m2309.07,2282.69c-2.27,0-4.49.21-6.72.39,48.08,3.99,86.01,50.17,86.01,106.68s-37.94,102.72-86.01,106.7c2.23.19,4.45.39,6.72.39,51.22,0,92.72-47.95,92.72-107.1s-41.5-107.07-92.72-107.07Z"/>
            </g>
            <path class="cls-28" d="m1835.98,1932.01c322.25-1.7,318.87-164.23,192.85-209.3,0,0-16.03-8.37-309.65-8.37-577.06,0-739.28,34.83-757.25,41.22-172.05,61.23-392.64,214.93-392.64,214.93,0,0-346.48,59.18-401.96,239.37-4.9,15.92-33.66,11.14-33.66,23.23-1.55,70.06,24.56,196.82,62.21,196.82,0,0,419.63.18,674.9,0-.67-9.72,41.83-178.06,41.83-187.94,0-147.62,923.37-309.97,923.37-309.97Z"/>
            <g>
              <path class="cls-28" d="m195.87,2429.91s419.63.18,674.9,0c-.31-4.51,8.68-43.23,18.41-84.4H146.95c11.04,46.11,28.23,84.4,48.92,84.4Z"/>
              <path class="cls-16" d="m2605.15,1932.01h-94.32c-164.45-90.34-268.29-152.31-394.31-197.37,0,0-36.08-13.24-147.8-13.24-197.74,0-321.12,14.76-335.39,18.28-175.58,43.33-389.2,230.81-389.2,230.81,0,0-152.74,13.83-354.43,105.17-72.24,32.71-98.72,80.7-129.88,134.2-8.38,14.39-33.66,11.14-33.66,23.23-1.55,70.06,18.47,196.82,30.06,196.82,0,0,56.38-.04,148.72-.11-.72-10.02-1.12-20.13-1.12-30.32,0-147.62,77.34-222.44,172.74-222.44s172.74,74.83,172.74,222.44c0,10.1-.4,20.12-1.1,30.06,284.2-.21,634.77-.48,890.04-.66-.67-9.72-1.05-19.53-1.05-29.4,0-147.62,77.34-222.44,172.74-222.44s172.74,74.83,172.74,222.44c0,9.74-.36,19.42-1.01,29.01l181.33-40.38c33.29-6.46,60.97-30.14,71.42-62.4,10.91-33.71,14.43-74.07,15.04-114.01.32-21.4-7.06-37.32-15.28-48.35-13.01-17.46-22.7-38.81-22.7-61.91,0-106.67,9.02-169.42-106.29-169.42Z"/>
            </g>
            <path class="cls-11" d="m2722.9,2248.13h-191.23c-30.57,0-60.08-13.38-82.78-37.64-37.06-39.59-86.13-63.7-139.96-63.7s-102.89,24.11-139.95,63.7c-22.71,24.26-52.21,37.64-82.79,37.64h-788.99c-30.57,0-60.08-13.38-82.78-37.64-37.06-39.59-86.13-63.7-139.96-63.7s-102.89,24.11-139.95,63.7c-22.71,24.26-52.21,37.64-82.79,37.64H185.67c-47.3,0-32.94,136.74,50.53,136.74,4.13,0,615.47.01,615.47.01,10.13,0,13.63,6.46,13.63,9.72,0,11.98.88,23.7,2.27,35.21,11.7,0,24.11-.02,37.36-.03-.72-10.02-1.12-20.13-1.12-30.32,0-147.62,77.34-222.44,172.74-222.44s172.74,74.83,172.74,222.44c0,10.1-.4,20.12-1.1,30.06,10.89,0,21.9-.02,32.98-.03.77-22.2-2.42-90.02-2.42-90.02-.01-18.79,295.62-34.15,311.47-34.15h193.39c15.85,0,321.31,15.37,321.3,34.15,0,0-6.05,50.44-2.9,89.41,12.25,0,24.37-.02,36.22-.03-.67-9.72-1.04-19.53-1.04-29.4,0-147.62,77.34-222.44,172.74-222.44s172.74,74.83,172.74,222.44c0,9.74-.36,19.42-1.01,29.01l36.75-8.18c3.15-15.31,10.9-35.42,32.5-35.42,0,0,76.48-4.36,135.41-34.26,29.4-14.91,39.52-44.89,49.16-81.01,2.84-10.64-3.13-21.48-12.55-21.48Z"/>
            <g>
              <path class="cls-16" d="m2712.24,2030.94c-1.31-63.26,8.52-98.93-107.08-98.93h-58.09c-23.1,0-45.6-6.91-64.86-19.67-111.16-73.71-249.84-136.27-365.69-177.7,0,0-36.08-13.24-147.8-13.24-197.74,0-321.12,14.76-335.39,18.28-175.58,43.33-389.19,230.81-389.19,230.81,0,0-152.74,13.83-354.44,105.17-63.51,28.76-91.65,69.33-118.7,115.07,263.22-99.17,937.85-155.53,1941.24-159.79Z"/>
              <g>
                <path class="cls-16" d="m185.27,2170.33c-7.47,12.49-13.66,25.61-17.94,39.52-4.2,13.63-25.82,12.12-31.98,18.97h452.11c202.28,0,290.93-24.37,319.98-58.49H185.27Z"/>
                <path class="cls-16" d="m2734.14,2163.34c-13.01-17.47-22.7-38.81-22.7-61.91,0-24.82,1.08-47.24.84-67.06h-115.67c0,34.83,66.11,131.23,148.6,150-2.85-8.35-6.84-15.34-11.07-21.02Z"/>
              </g>
            </g>
            <path class="cls-16" d="m2116.51,1734.63s-36.08-13.24-147.8-13.24c-197.74,0-321.12,14.76-335.39,18.28-175.58,43.33-389.19,230.81-389.19,230.81,0,0-152.74,13.83-354.44,105.17-23.34,10.57-41.88,22.75-57.37,36.18,339.13-150.95,1129.08-207.59,1608.06-225.94-102.84-62.2-222.15-114.88-323.86-151.26Zm-1547.23,235.85s-216.27,36.96-334.43,141.35c0,0,411.08-26.22,589.11-144.92h-249.49c-3.28,2.25-5.19,3.57-5.19,3.57Z"/>
            <path class="cls-12" d="m919.31,2123.27h-171.84c-94.9,0-153.52,16.54-189.52,35.27-8.64,4.49-18.13,7.1-27.87,7.1H254.5c-4.92-6.92-8.94-14.85-11.28-23.99-2.55-9.99-10.72-17.38-20.8-18.21-25.39,25.08-45.05,53.75-55.1,86.42-.14.46-.37.84-.55,1.27h592.45c32.03,0,130.29-21.74,169.34-54.6,12.43-10.46,6.09-33.26-9.26-33.26Z"/>
            <g>
              <path class="cls-9" d="m612.38,2205.85h130.21c76.09,0,156.93-27.61,183.43-50.92,10.5-9.24,4.65-29.52-8.33-29.52h-145.03c-141.19,0-231.6,80.44-160.28,80.44Z"/>
              <path class="cls-27" d="m720.52,2199.69c104.66,2.67,132.26-18.41,169.85-40.11,12.6-7.28,5.58-23.25-10-23.25h-32.41c-88.33,0-123.62,34.67-136.1,52.96-3.4,4.98,1.54,10.21,8.65,10.39Z"/>
              <path class="cls-19" d="m655.25,2184.22c42.08-2.81,126.53-16.13,162.49-35.14,12.06-6.38,5.34-20.37-9.56-20.37h-31c-84.5,0-118.27,30.38-130.2,46.41-3.25,4.37,1.48,9.56,8.28,9.1Z"/>
            </g>
            <g>
              <path class="cls-16" d="m2591.59,2001.62c-5.71,0-9.13,7.4-5.99,12.97l20.96,37.25c17.17,30.5,46.34,48.87,77.6,48.87h27.63c6.74-14.6,7.39-31.48,7.39-49.55s-.65-34.95-7.39-49.55h-120.2Z"/>
              <g>
                <path class="cls-28" d="m2629.15,2027.57c-3.8,0-6.08,4.93-4,8.64l13.97,24.83c11.44,20.33,30.88,32.57,51.72,32.57h0c12.53,0,22.89-11.56,23.27-26.17.06-2.25.07-4.54.07-6.85,0-.12,0-.24,0-.36-.01-18.08-12.73-32.66-28.22-32.66h-56.81Z"/>
                <path class="cls-13" d="m2627.82,2006.11c-2.75,0-4.4,3.57-2.89,6.25l10.1,17.95c8.27,14.7,22.32,23.55,37.39,23.55h0c9.05,0,16.55-8.36,16.82-18.92.04-1.63.05-3.28.05-4.95,0-.09,0-.17,0-.26,0-13.07-9.2-23.61-20.4-23.61h-41.07Z"/>
              </g>
              <path class="cls-12" d="m2711.79,2102.92h-27.63c-32,0-61.6-18.64-79.18-49.87l-20.96-37.25c-1.86-3.31-2.01-7.35-.4-10.83,1.61-3.48,4.59-5.55,7.97-5.55h120.2c1.04,0,1.89.98,1.89,2.2s-.84,2.2-1.89,2.2h-120.2c-1.98,0-3.72,1.21-4.65,3.24-.94,2.03-.85,4.39.23,6.32l20.96,37.25c16.88,29.98,45.3,47.88,76.03,47.88h27.63c1.04,0,1.89.98,1.89,2.2s-.84,2.2-1.89,2.2Z"/>
            </g>
            <g>
              <path class="cls-9" d="m168.73,2205.81c3.4.02,7.69.03,13.41.03,45.37,0,71.25-16.17,59.29-64.87-2.26-9.19-11.59-14.66-21.07-15.41-23.32,23.52-41.54,50.17-51.63,80.25Z"/>
              <path class="cls-27" d="m191.36,2200.73c2,.01,4.53.02,7.89.02,26.71,0,41.95-8.92,34.9-35.78-1.33-5.07-6.82-8.08-12.4-8.5-13.73,12.97-24.45,27.67-30.4,44.26Z"/>
              <path class="cls-19" d="m192.77,2167.26c1.87.01,4.24.02,7.4.02,25.02,0,39.3-7.56,32.7-30.32-1.24-4.29-6.39-6.85-11.62-7.2-12.86,10.99-22.91,23.44-28.48,37.5Z"/>
            </g>
            <path class="cls-12" d="m734.88,2399.48H178.49c-5.07,0-9.74-2.94-11.83-7.55-.24-.54-.48-1.07-.72-1.61-16.24-36.3,10.8-77.23,50.57-77.23h428.01c44.07,0,84.34,24.94,103.98,64.39h0c5.03,10.11-2.32,21.99-13.62,21.99Z"/>
            <path class="cls-12" d="m1506.99,1765.21h-570.58c-166.1,65.69-363.53,202.77-366.95,205.15h603.52c18.9,0,37.15-6.54,51.76-18.52,45.59-37.41,155.39-122.85,268.37-175.86,5.49-2.58,19.95-10.76,13.88-10.76Z"/>
            <g>
              <path class="cls-28" d="m2084.71,1762.32c-2.26-.36-69.3-12.87-169.79-12.87-225.3,0-301.45,20.45-302.19,20.65-116.11,32.96-236.53,141.5-308.49,206.35-9.74,8.78-18.7,16.85-26.76,23.95-1.67,1.47-1.99,3.99-.84,6.74,1.03,2.48,3.36,4.99,6.27,4.99l1057.7-68.35c-23.39-39.58-156.28-134.15-255.9-181.47Z"/>
              <path class="cls-16" d="m600.28,1949.58h555.43c31.61,0,62.31-10.39,87.37-29.66,51.41-39.55,128.88-94.48,209.8-134.99h-562.76c-115.07,52.16-234.92,128.32-289.83,164.65Z"/>
            </g>
            <g>
              <path class="cls-16" d="m770.09,1921.1c-15.11,7.1-27.25,16.97-35.61,28.48h421.22c7.17,0,14.28-.61,21.3-1.66,9.83-48.61,22.92-97.88,40.32-145.36-104.76,3.94-149.86,11.49-163.63,14.35-82.77,17.19-189.53,60.02-283.6,104.19Zm593.94-121.02c-27.62,0-52.94.22-76.2.61-14.13,36.06-25.5,73.69-34.7,111.54,44.34-33.59,104.92-76.08,169.63-111.52-17.08-.39-36.52-.63-58.73-.63Zm172.9,9.58c-1.07-.3-4.53-1.16-11.76-2.26-75.87,41.87-147.72,103.5-200.61,150.79l247.97-12.18c7.28-35.54,16.25-71.26,27.46-106.19-20.3-11.2-41.56-21.56-63.05-30.17Zm168.06,101.55c-24.85-20.89-58.77-45.09-96.59-66.68-10.54,33.25-19.11,67.2-26.09,101.01l107.38-5.27c18.95-.93,28.11-18.29,15.3-29.06Z"/>
              <path class="cls-16" d="m1791.95,1779.7c-13.97,0-22.17,15.71-14.18,27.17l23.33,33.44c22.88,32.8,60.35,52.35,100.34,52.35h388.24c-44.89-36.68-110.65-80.66-170.77-112.95h-326.96Z"/>
              <path class="cls-16" d="m1881.04,1938.93h-6.96l1.99-18.35c15.71,0,28.85-10.46,27.71-22.05l-2.78-28.48c-1.9-19.48-22.78-33.87-49.18-33.87h-44.59c-26.39,0-50.4,14.38-56.53,33.87l-8.97,28.48c-3.65,11.59,7.22,22.05,22.93,22.05h8.32l-1.99,18.35h-15.28c-32.36,0-61.12,18.91-65.47,43.05l-.7,3.89,245.82-15.89c-6.14-18.11-27.58-31.05-54.33-31.05Zm240.46,0c-22.36,0-42.99,9.03-55.05,22.58l215.1-13.9c-9.46-5.44-21.42-8.68-34.73-8.68h-6.96l1.99-18.35c15.71,0,28.85-10.46,27.71-22.05l-2.29-23.49c-16.75-12.71-35.33-25.89-54.78-38.86h-39.46c-26.39,0-50.4,14.38-56.53,33.87l-8.97,28.48c-3.65,11.59,7.22,22.05,22.93,22.05h8.32l-1.99,18.35h-15.28Z"/>
              <path class="cls-16" d="m1365.21,1834.57c-8.84-10.18-23.42-16.64-40.33-16.64h-44.59c-26.39,0-50.4,15.62-56.53,36.78l-8.97,30.94c-3.65,12.59,7.22,23.95,22.93,23.95h8.32l-.87,8.73c32.04-24.57,73.78-54.77,120.04-83.75Zm354.66,94.95h-6.96l1.99-19.93c15.71,0,28.85-11.36,27.71-23.95l-2.78-30.94c-1.91-21.16-22.78-36.78-49.18-36.78h-44.59c-26.39,0-50.4,15.62-56.53,36.78l-8.97,30.94c-3.65,12.59,7.22,23.95,22.92,23.95h8.33l-1.99,19.93h-15.28c-32.36,0-61.12,20.54-65.47,46.75l-3.35,20.17,250.12-16.16.14-4.01c.89-26.22-23.76-46.75-56.13-46.75Zm-491.2,0c-18.78.02-36.31,6.99-48.58,17.94,17.15-2.95,33.58-9.06,48.58-17.94Zm128.37.11c-19.45,16.82-37.3,32.86-52.79,46.82-9.74,8.78-18.7,16.85-26.76,23.95-1.67,1.47-1.99,3.99-.84,6.74,1.03,2.48,3.36,4.99,6.27,4.99l126.35-8.16.94-27.7c.86-25.41-22.29-45.42-53.18-46.64Z"/>
              <path class="cls-16" d="m695.14,1924.03c-18.1,0-54.5,10.41-74.28,25.55h534.84c29.23,0,57.61-8.98,81.55-25.55h-542.11Z"/>
            </g>
            <path class="cls-13" d="m1662.95,1866.76c.71-.21,73.13-20.65,287.43-20.65,95.57,0,159.34,12.51,161.49,12.87,45.84,22.89,99.06,56.84,144.33,90.27l84.41-5.45c-23.39-39.58-156.28-134.15-255.9-181.47-2.26-.36-69.3-12.87-169.79-12.87-225.3,0-301.45,20.45-302.19,20.65-116.11,32.96-236.53,141.5-308.49,206.35-9.74,8.78-18.7,16.85-26.76,23.95-1.67,1.47-1.99,3.99-.84,6.74,1.03,2.48,3.36,4.99,6.27,4.99l164.69-10.64c63.14-54.85,140.18-112.3,215.34-134.74Z"/>
            <path class="cls-31" d="m1183.29,1853.72h152.22c36.28-24.05,76.37-48.27,117.36-68.79h-562.76c-115.07,52.16-234.92,128.32-289.83,164.65h168.25c128.77-62.73,270.52-95.86,414.76-95.86Z"/>
            <g>
              <g>
                <g>
                  <path class="cls-12" d="m2346.16,1944.81c-18.46-38.29-156.73-137.62-259.56-186.46-.16-.08-.34-.14-.52-.18-.68-.13-68.98-13.12-171.15-13.12-227.4,0-302.64,20.61-303.38,20.82-117.1,33.24-238,142.21-310.24,207.32-9.73,8.77-18.68,16.83-26.72,23.92-3.1,2.73-3.87,7.23-1.99,11.73,1.62,3.9,5.41,7.7,10.33,7.7.21,0,.42,0,.63-.02l1060.77-68.56c.73-.05,1.39-.46,1.76-1.09.37-.63.4-1.41.08-2.06Zm-921.79-53.63c58.98-46,126.42-89.77,191.86-108.35.58-.16,46.57-12.23,170.97-17.62,6.34,63.18,8.67,132.09,8.51,200.57l-420.89,27.21c0-39.75,18.2-77.36,49.55-101.81Zm433.13,70.6c0-67.29-2.38-135.23-8.54-198.49,20.42-.41,42.32-.64,65.97-.64,91.92,0,155.19,10.54,165.91,12.45,17.91,8.57,36.66,18.59,55.48,29.4,6.54,44.74,10.7,91.48,13.1,138.41l-291.92,18.87Zm428.43-27.7l-127.74,8.26c-2.29-44.75-6.2-89.31-12.2-132.19,55.95,32.93,111.53,72.27,147.1,102.75,8.2,7.03,3.62,20.49-7.16,21.18Z"/>
                  <g>
                    <path class="cls-10" d="m1481.85,2059.47c0-9.93-8.54-24.95-19.06-33.54l-25.92-21.14c-14.92-12.17-28.96-20.05-41.2-23.76-21.36-6.47-37.19-.17-42.88,18.1l-22.67-18.49c-2.04-1.66-3.69-1.45-3.69.47v13.78c0,1.92,1.65,4.82,3.69,6.49l96.6,78.79c1.51,1.23,2.8,1.42,3.38.66l11.04,9.01c22.49,18.35,40.72,16.01,40.72-5.21v-19.77h0v-5.39Z"/>
                    <g>
                      <path class="cls-14" d="m1421.59,1914.52h43.57c9.21,0,16.69,7.48,16.69,16.69v29.24c0,19.67-15.97,35.65-35.65,35.65h-100.29v-5.9c0-41.77,33.91-75.68,75.68-75.68Z"/>
                      <path class="cls-17" d="m1433.82,1937.9h48.03v-5.39c0-9.94-6.93-17.99-15.48-17.99h-50.25c-38.77,0-70.21,36.52-70.21,81.58h7.76c14.54-34.43,44.92-58.19,80.16-58.19Z"/>
                      <path class="cls-12" d="m1329.65,1977.45h65.21c8.84,0,16.02,7.18,16.02,16.02v1.5c0,1.78-1.45,3.23-3.23,3.23h-77.99c-1.78,0-3.23-1.45-3.23-3.23v-14.29c0-1.78,1.45-3.23,3.23-3.23Z"/>
                    </g>
                  </g>
                </g>
                <g>
                  <g>
                    <ellipse class="cls-10" cx="1762.94" cy="2053.66" rx="32.85" ry="22.98"/>
                    <g class="cls-37">
                      <rect class="cls-20" x="1717.49" y="2040.7" width="82.66" height="25.92" rx="12.96" ry="12.96"/>
                    </g>
                    <rect class="cls-12" x="1725.61" y="2040.7" width="82.66" height="25.92" rx="12.96" ry="12.96"/>
                  </g>
                  <g>
                    <ellipse class="cls-10" cx="2257.64" cy="2036.72" rx="32.85" ry="22.98"/>
                    <g class="cls-37">
                      <path class="cls-20" d="m2281.89,2049.68h-56.74c-7.16,0-12.96-5.8-12.96-12.96h0c0-7.16,5.8-12.96,12.96-12.96h56.74c7.16,0,12.96,5.8,12.96,12.96h0c0,7.16-5.8,12.96-12.96,12.96Z"/>
                    </g>
                    <path class="cls-12" d="m2290.01,2049.68h-56.74c-7.16,0-12.96-5.8-12.96-12.96h0c0-7.16,5.8-12.96,12.96-12.96h56.74c7.16,0,12.96,5.8,12.96,12.96h0c0,7.16-5.8,12.96-12.96,12.96Z"/>
                  </g>
                </g>
              </g>
              <g>
                <path class="cls-12" d="m1799.75,2406.8c-.09,0-.18,0-.27-.02-1.21-.15-2.07-1.25-1.92-2.45.47-3.83,46.56-386.18,16.76-655.41-.13-1.21.74-2.3,1.94-2.43,1.27-.11,2.3.74,2.43,1.95,29.85,269.74-16.3,652.59-16.77,656.42-.14,1.12-1.09,1.93-2.18,1.93Z"/>
                <path class="cls-12" d="m2031.6,2407.56h-694.46c-10.55,0-19.77-8.15-21.43-18.96-43.68-284.24,10.27-436.23,10.82-437.73.13-.34.33-.64.6-.89,79.3-70.65,183.3-155.43,284.41-184.13.74-.21,75.98-20.82,303.38-20.82,102.18,0,170.48,12.99,171.16,13.12.18.04.36.09.52.18,102.82,48.84,241.09,148.17,259.55,186.46.2.41.27.88.19,1.33l-14.28,81.78c-6.37,36.46-42.29,65.35-57.44,76.08-133.98,93.63-156.05,163.34-173.78,219.36-5.97,18.85-11.6,36.65-20.79,53.43-10.55,19.27-28.66,30.78-48.44,30.78Zm-701.11-454.67c-3.4,9.87-52.65,160.27-10.43,435.04,1.33,8.68,8.68,15.23,17.08,15.23h694.46c18.15,0,34.82-10.65,44.58-28.49,8.98-16.41,14.55-34.01,20.45-52.64,17.93-56.65,40.25-127.16,175.45-221.63,14.69-10.41,49.55-38.39,55.64-73.23l14.16-81.07c-17.53-34.24-149.15-132.41-256.91-183.65-4.78-.89-71.58-12.99-170.05-12.99-226.8,0-301.45,20.44-302.18,20.65-100.07,28.4-203.36,112.53-282.26,182.79Z"/>
              </g>
            </g>
          </g>
          <g>
            <rect class="cls-22" x="1126.56" y="88.17" width="1139.94" height="2477.54" rx="108.62" ry="108.62"/>
            <rect class="cls-27" x="1230.18" y="88.17" width="1139.94" height="2477.54" rx="108.62" ry="108.62"/>
            <rect class="cls-22" x="1243.88" y="88.17" width="1139.94" height="2477.54" rx="108.62" ry="108.62"/>
            <path class="cls-19" d="m1971.74,295.15h0c0,28.55-23.15,51.7-51.7,51.7h-212.39c-28.55,0-51.7-23.15-51.7-51.7h0c0-40.1-32.5-72.6-72.6-72.6h-242.56c-39.24,0-71.04,31.81-71.04,71.04v2161.15c0,45.51,36.89,82.4,82.4,82.4h923.37c45.51,0,82.41-36.89,82.41-82.41V293.59c0-39.24-31.81-71.04-71.04-71.04h-242.56c-40.1,0-72.6,32.5-72.6,72.6Z"/>
            <g class="cls-37">
              <g>
                <g>
                  <rect class="cls-3" x="2177.3" y="297.57" width="14.31" height="80.21"/>
                  <rect class="cls-3" x="2157.67" y="317.56" width="14.31" height="60.22"/>
                  <rect class="cls-3" x="2138.03" y="337.56" width="14.31" height="40.23"/>
                  <rect class="cls-3" x="2118.39" y="357.55" width="14.31" height="20.23"/>
                </g>
                <path class="cls-3" d="m2256.35,303.9v-6.32h-23.63v6.32h-10.15v73.89h43.93v-73.89h-10.15Zm-30.86,18.42v-15h38.09v15h-38.09Z"/>
              </g>
              <g>
                <path class="cls-3" d="m1632.77,459.2h-.4l-22.44,14.26-3.38-15.67,28.2-17.77h14.89v152h-16.88v-132.82Z"/>
                <path class="cls-3" d="m1782.69,514.39c0,51.68-16.48,80.21-44.88,80.21-25.22,0-42.49-27.83-42.89-78.1,0-51.21,18.86-79.04,45.08-79.04s42.69,28.53,42.69,76.93Zm-70.1,2.34c0,39.52,10.33,61.97,26.21,61.97,17.67,0,26.21-24.55,26.21-63.37s-7.94-61.97-26.21-61.97c-15.09,0-26.21,21.98-26.21,63.37Z"/>
                <path class="cls-3" d="m1800.15,497.55c0-8.65,4.96-14.73,11.72-14.73,7.15,0,11.72,6.08,11.72,14.73,0,8.18-4.57,14.5-11.91,14.5-6.75,0-11.52-6.31-11.52-14.5Zm0,82.55c0-8.65,4.96-14.73,11.72-14.73,7.15,0,11.72,6.08,11.72,14.73,0,8.18-4.57,14.5-11.91,14.5-6.75,0-11.52-6.31-11.52-14.5Z"/>
                <path class="cls-3" d="m1925.64,514.39c0,51.68-16.48,80.21-44.88,80.21-25.22,0-42.5-27.83-42.89-78.1,0-51.21,18.86-79.04,45.08-79.04s42.69,28.53,42.69,76.93Zm-70.1,2.34c0,39.52,10.33,61.97,26.21,61.97,17.67,0,26.21-24.55,26.21-63.37s-7.94-61.97-26.21-61.97c-15.09,0-26.21,21.98-26.21,63.37Z"/>
                <path class="cls-3" d="m2018.57,457.33h-49.25l-4.96,39.05c2.98-.47,5.76-.7,10.52-.7,10.13,0,19.86,2.34,27.8,8.18,10.13,6.55,18.47,19.88,18.47,38.82,0,29.7-20.06,51.91-48.06,51.91-14.1,0-25.82-4.68-32.17-9.35l4.37-15.67c5.36,3.74,15.89,8.42,27.8,8.42,16.28,0,30.58-12.63,30.38-32.97,0-19.64-11.32-33.44-36.94-33.44-7.55,0-13.31.7-18.07,1.4l8.34-72.96h61.76v17.3Z"/>
              </g>
            </g>
            <path class="cls-35" d="m1929.08,88.17h-576.58c-59.99,0-108.62,48.63-108.62,108.62v2260.3c0,59.99,48.63,108.62,108.62,108.62h447.65c-325.82-1268.68,11.13-2193,128.93-2477.54Z"/>
          </g>
          <g>
            <g class="cls-38">
              <g>
                <ellipse class="cls-33" cx="1441.51" cy="2552.08" rx="1305.81" ry="13.63"/>
                <g>
                  <g>
                    <g>
                      <path class="cls-22" d="m1527.01,2389.75c0-89.61,62.9-162.29,140.54-162.29h-81.29c-77.64,0-140.55,72.68-140.55,162.29s62.91,162.33,140.55,162.33h81.29c-77.64,0-140.54-72.68-140.54-162.33Z"/>
                      <path class="cls-20" d="m1664.4,2227.46c79.38,0,143.7,72.68,143.7,162.29s-64.32,162.33-143.7,162.33-143.7-72.68-143.7-162.33,64.32-162.29,143.7-162.29Z"/>
                      <path class="cls-12" d="m1667.55,2227.46c77.64,0,140.55,72.68,140.55,162.29s-62.91,162.33-140.55,162.33-140.54-72.68-140.54-162.33,62.91-162.29,140.54-162.29Z"/>
                    </g>
                    <g>
                      <path class="cls-22" d="m293.64,2389.75c0-89.61,62.9-162.29,140.54-162.29h-81.29c-77.64,0-140.55,72.68-140.55,162.29s62.91,162.33,140.55,162.33h81.29c-77.64,0-140.54-72.68-140.54-162.33Z"/>
                      <path class="cls-20" d="m431.03,2227.46c79.38,0,143.7,72.68,143.7,162.29s-64.32,162.33-143.7,162.33-143.7-72.68-143.7-162.33,64.32-162.29,143.7-162.29Z"/>
                      <path class="cls-12" d="m434.19,2227.46c77.64,0,140.55,72.68,140.55,162.29s-62.91,162.33-140.55,162.33-140.54-72.68-140.54-162.33,62.91-162.29,140.54-162.29Z"/>
                    </g>
                  </g>
                  <path class="cls-12" d="m2003.38,2128.19H313.57c-76.71,0-138.88,62.41-138.88,139.4v122.18c0,11.77,14.21,58.46,55.59,58.46h2218.67c19.74,0,39.33-3.46,57.88-10.24l77.35-31.42c42.74-17.36,70.71-59.02,70.71-105.3v-173.08h-651.5Z"/>
                  <g>
                    <g class="cls-39">
                      <path d="m1075.7,2552.08h-81.29c-77.64,0-140.54-72.68-140.54-162.33s62.91-162.29,140.54-162.29h81.29c-77.64,0-140.54,72.68-140.54,162.29s62.91,162.33,140.54,162.33Z"/>
                      <g class="cls-43">
                        <g class="cls-39">
                          <path class="cls-12" d="m935.15,2389.75c0-8.73.63-17.29,1.78-25.64h-81.29c-1.15,8.36-1.78,16.91-1.78,25.64,0,89.65,62.91,162.33,140.54,162.33h81.29c-77.64,0-140.54-72.68-140.54-162.33Z"/>
                          <path class="cls-12" d="m887.42,2284.5c-10.41,14.1-18.77,30.28-24.54,47.92-3.31,10.11-5.73,20.72-7.24,31.68h81.29c1.51-10.96,3.93-21.57,7.24-31.68h0c5.77-17.64,14.13-33.82,24.54-47.92h-81.29Z"/>
                          <path class="cls-12" d="m914.57,2256.19c-10.08,8.05-19.21,17.57-27.14,28.31h81.29c7.93-10.74,17.06-20.26,27.14-28.31h-81.29Z"/>
                          <path class="cls-12" d="m1075.7,2227.46h-81.29c-29.66,0-57.17,10.62-79.84,28.73h81.29c22.67-18.11,50.18-28.73,79.84-28.73Z"/>
                        </g>
                      </g>
                    </g>
                    <path class="cls-20" d="m1072.54,2227.46c79.38,0,143.7,72.68,143.7,162.29s-64.32,162.33-143.7,162.33-143.7-72.68-143.7-162.33,64.32-162.29,143.7-162.29Z"/>
                    <path class="cls-29" d="m1075.7,2227.46c77.64,0,140.55,72.68,140.55,162.29s-62.91,162.33-140.55,162.33-140.54-72.68-140.54-162.33,62.91-162.29,140.54-162.29Z"/>
                    <path class="cls-22" d="m1075.7,2269.06c57.74,0,104.53,54.05,104.53,120.7s-46.78,120.73-104.53,120.73-104.53-54.05-104.53-120.73,46.78-120.7,104.53-120.7Z"/>
                    <g class="cls-37">
                      <path class="cls-12" d="m1075.7,2286.64c49.33,0,89.3,46.18,89.3,103.12s-39.97,103.14-89.3,103.14-89.3-46.18-89.3-103.14,39.97-103.12,89.3-103.12Z"/>
                    </g>
                    <path class="cls-9" d="m1075.69,2274.68c-55.09,0-99.73,51.58-99.73,115.17s44.64,115.19,99.73,115.19,99.73-51.57,99.73-115.19-44.64-115.17-99.73-115.17Zm15.33,126.71l72.32,22.45c-4.2,14.47-11.02,27.51-19.79,38.46l-52.53-60.91Zm53.77-82.4c8.58,11.15,15.24,24.31,19.2,38.89l-72.01,22.36,52.82-61.25Zm-48.93-33.34l-19.21,83.06-19.32-83.56c5.94-1.38,12.08-2.12,18.37-2.12,6.94,0,13.67.95,20.16,2.62Zm-89.25,175.08c-8.58-11.15-15.23-24.31-19.19-38.89l72-22.36-52.81,61.24Zm-18.55-104.85c4.2-14.46,11.02-27.5,19.79-38.46l52.53,60.91-72.32-22.45Zm67.49,138.2l19.21-83.06,19.32,83.56c-5.94,1.38-12.08,2.12-18.38,2.12-6.93,0-13.66-.95-20.16-2.62Z"/>
                    <path class="cls-25" d="m1075.7,2386.15c33.91,0,65.38,6.81,91.44,18.45.59-4.86,1-9.8,1-14.85,0-58.93-41.37-106.73-92.43-106.73s-92.43,47.8-92.43,106.73c0,5.05.41,9.98,1,14.85,26.06-11.64,57.53-18.45,91.44-18.45Z"/>
                    <path class="cls-19" d="m1075.8,2274.68c-55.03,0-99.63,51.55-99.63,115.1s44.59,115.13,99.63,115.13,99.63-51.55,99.63-115.13-44.59-115.1-99.63-115.1Zm0,222.14c-51.16,0-92.62-47.92-92.62-107.03s41.45-107,92.62-107,92.62,47.92,92.62,107-41.46,107.03-92.62,107.03Z"/>
                    <g class="cls-37">
                      <path class="cls-20" d="m1062.69,2354.56c16.84,0,30.49,15.77,30.49,35.21s-13.65,66.41-30.49,66.41-30.49-46.96-30.49-66.41,13.65-35.21,30.49-35.21Z"/>
                    </g>
                    <g>
                      <path class="cls-12" d="m1062.69,2354.56c16.84,0,30.49,15.77,30.49,35.21s-13.65,35.22-30.49,35.22-30.49-15.77-30.49-35.22,13.65-35.21,30.49-35.21Z"/>
                      <path class="cls-19" d="m1075.7,2354.56c16.84,0,30.49,15.77,30.49,35.21s-13.65,35.22-30.49,35.22-30.49-15.77-30.49-35.22,13.65-35.21,30.49-35.21Z"/>
                    </g>
                  </g>
                  <g>
                    <g class="cls-39">
                      <path d="m2309.07,2552.08h-81.29c-77.64,0-140.54-72.68-140.54-162.33s62.91-162.29,140.54-162.29h81.29c-77.64,0-140.54,72.68-140.54,162.29s62.91,162.33,140.54,162.33Z"/>
                      <g class="cls-41">
                        <g class="cls-39">
                          <path class="cls-12" d="m2168.52,2389.75c0-8.73.63-17.29,1.78-25.64h-81.29c-1.15,8.36-1.78,16.91-1.78,25.64,0,89.65,62.91,162.33,140.54,162.33h81.29c-77.64,0-140.54-72.68-140.54-162.33Z"/>
                          <path class="cls-12" d="m2120.79,2284.5c-10.41,14.1-18.77,30.28-24.54,47.92-3.31,10.11-5.73,20.72-7.24,31.68h81.29c1.51-10.96,3.93-21.57,7.24-31.68h0c5.77-17.64,14.13-33.82,24.54-47.92h-81.29Z"/>
                          <path class="cls-12" d="m2147.94,2256.19c-10.08,8.05-19.21,17.57-27.14,28.31h81.29c7.93-10.74,17.06-20.26,27.14-28.31h-81.29Z"/>
                          <path class="cls-12" d="m2309.07,2227.46h-81.29c-29.66,0-57.17,10.62-79.84,28.73h81.29c22.67-18.11,50.18-28.73,79.84-28.73Z"/>
                        </g>
                      </g>
                    </g>
                    <path class="cls-20" d="m2305.91,2227.46c79.38,0,143.7,72.68,143.7,162.29s-64.32,162.33-143.7,162.33-143.7-72.68-143.7-162.33,64.32-162.29,143.7-162.29Z"/>
                    <path class="cls-29" d="m2309.07,2227.46c77.64,0,140.55,72.68,140.55,162.29s-62.91,162.33-140.55,162.33-140.54-72.68-140.54-162.33,62.91-162.29,140.54-162.29Z"/>
                    <path class="cls-22" d="m2309.07,2269.06c57.74,0,104.53,54.05,104.53,120.7s-46.78,120.73-104.53,120.73-104.53-54.05-104.53-120.73,46.78-120.7,104.53-120.7Z"/>
                    <g class="cls-37">
                      <path class="cls-12" d="m2309.07,2286.64c49.33,0,89.3,46.18,89.3,103.12s-39.97,103.14-89.3,103.14-89.3-46.18-89.3-103.14,39.97-103.12,89.3-103.12Z"/>
                    </g>
                    <path class="cls-9" d="m2309.06,2274.68c-55.09,0-99.73,51.58-99.73,115.17s44.64,115.19,99.73,115.19,99.73-51.57,99.73-115.19-44.64-115.17-99.73-115.17Zm15.33,126.71l72.32,22.45c-4.2,14.47-11.02,27.51-19.79,38.46l-52.53-60.91Zm53.77-82.4c8.58,11.15,15.24,24.31,19.2,38.89l-72.01,22.36,52.82-61.25Zm-48.93-33.34l-19.21,83.06-19.32-83.56c5.94-1.38,12.08-2.12,18.37-2.12,6.94,0,13.67.95,20.16,2.62Zm-89.25,175.08c-8.58-11.15-15.23-24.31-19.19-38.89l72-22.36-52.81,61.24Zm-18.55-104.85c4.2-14.46,11.02-27.5,19.79-38.46l52.53,60.91-72.32-22.45Zm67.49,138.2l19.21-83.06,19.32,83.56c-5.94,1.38-12.08,2.12-18.38,2.12-6.93,0-13.66-.95-20.16-2.62Z"/>
                    <path class="cls-25" d="m2309.07,2386.15c33.91,0,65.38,6.81,91.44,18.45.59-4.86,1-9.8,1-14.85,0-58.93-41.37-106.73-92.43-106.73s-92.43,47.8-92.43,106.73c0,5.05.41,9.98,1,14.85,26.06-11.64,57.53-18.45,91.44-18.45Z"/>
                    <path class="cls-19" d="m2309.17,2274.68c-55.03,0-99.63,51.55-99.63,115.1s44.59,115.13,99.63,115.13,99.63-51.55,99.63-115.13-44.59-115.1-99.63-115.1Zm0,222.14c-51.16,0-92.62-47.92-92.62-107.03s41.45-107,92.62-107,92.62,47.92,92.62,107-41.46,107.03-92.62,107.03Z"/>
                    <g class="cls-37">
                      <path class="cls-20" d="m2296.06,2354.56c16.84,0,30.49,15.77,30.49,35.21s-13.65,66.41-30.49,66.41-30.49-46.96-30.49-66.41,13.65-35.21,30.49-35.21Z"/>
                    </g>
                    <g>
                      <path class="cls-12" d="m2296.06,2354.56c16.84,0,30.49,15.77,30.49,35.21s-13.65,35.22-30.49,35.22-30.49-15.77-30.49-35.22,13.65-35.21,30.49-35.21Z"/>
                      <path class="cls-19" d="m2309.07,2354.56c16.84,0,30.49,15.77,30.49,35.21s-13.65,35.22-30.49,35.22-30.49-15.77-30.49-35.22,13.65-35.21,30.49-35.21Z"/>
                    </g>
                  </g>
                  <path class="cls-32" d="m1835.98,1932.01c322.25-1.7,318.87-164.23,192.85-209.3,0,0-16.03-8.37-309.65-8.37-577.06,0-739.28,34.83-757.25,41.22-172.05,61.23-392.64,214.93-392.64,214.93,0,0-346.48,59.18-401.96,239.37-4.9,15.92-33.66,11.14-33.66,23.23-1.55,70.06,24.56,196.82,62.21,196.82,0,0,419.63.18,674.9,0-.67-9.72,41.83-178.06,41.83-187.94,0-147.62,923.37-309.97,923.37-309.97Z"/>
                  <g>
                    <path class="cls-1" d="m195.87,2429.91s419.63.18,674.9,0c-.31-4.51,8.68-43.23,18.41-84.4H146.95c11.04,46.11,28.23,84.4,48.92,84.4Z"/>
                    <path class="cls-1" d="m2605.15,1932.01h-94.32c-164.45-90.34-268.29-152.31-394.31-197.37,0,0-36.08-13.24-147.8-13.24-197.74,0-321.12,14.76-335.39,18.28-175.58,43.33-389.2,230.81-389.2,230.81,0,0-152.74,13.83-354.43,105.17-72.24,32.71-98.72,80.7-129.88,134.2-8.38,14.39-33.66,11.14-33.66,23.23-1.55,70.06,18.47,196.82,30.06,196.82,0,0,56.38-.04,148.72-.11-.72-10.02-1.12-20.13-1.12-30.32,0-147.62,77.34-222.44,172.74-222.44s172.74,74.83,172.74,222.44c0,10.1-.4,20.12-1.1,30.06,284.2-.21,634.77-.48,890.04-.66-.67-9.72-1.05-19.53-1.05-29.4,0-147.62,77.34-222.44,172.74-222.44s172.74,74.83,172.74,222.44c0,9.74-.36,19.42-1.01,29.01l181.33-40.38c33.29-6.46,60.97-30.14,71.42-62.4,10.91-33.71,14.43-74.07,15.04-114.01.32-21.4-7.06-37.32-15.28-48.35-13.01-17.46-22.7-38.81-22.7-61.91,0-106.67,9.02-169.42-106.29-169.42Z"/>
                  </g>
                  <path class="cls-32" d="m2722.9,2248.13h-191.23c-30.57,0-60.08-13.38-82.78-37.64-37.06-39.59-86.13-63.7-139.96-63.7s-102.89,24.11-139.95,63.7c-22.71,24.26-52.21,37.64-82.79,37.64h-788.99c-30.57,0-60.08-13.38-82.78-37.64-37.06-39.59-86.13-63.7-139.96-63.7s-102.89,24.11-139.95,63.7c-22.71,24.26-52.21,37.64-82.79,37.64H185.67c-47.3,0-32.94,136.74,50.53,136.74,4.13,0,615.47.01,615.47.01,10.13,0,13.63,6.46,13.63,9.72,0,11.98.88,23.7,2.27,35.21,11.7,0,24.11-.02,37.36-.03-.72-10.02-1.12-20.13-1.12-30.32,0-147.62,77.34-222.44,172.74-222.44s172.74,74.83,172.74,222.44c0,10.1-.4,20.12-1.1,30.06,10.89,0,21.9-.02,32.98-.03.77-22.2-2.42-90.02-2.42-90.02-.01-18.79,295.62-34.15,311.47-34.15h193.39c15.85,0,321.31,15.37,321.3,34.15,0,0-6.05,50.44-2.9,89.41,12.25,0,24.37-.02,36.22-.03-.67-9.72-1.04-19.53-1.04-29.4,0-147.62,77.34-222.44,172.74-222.44s172.74,74.83,172.74,222.44c0,9.74-.36,19.42-1.01,29.01l36.75-8.18c3.15-15.31,10.9-35.42,32.5-35.42,0,0,76.48-4.36,135.41-34.26,29.4-14.91,39.52-44.89,49.16-81.01,2.84-10.64-3.13-21.48-12.55-21.48Z"/>
                  <g>
                    <path class="cls-30" d="m2712.24,2030.94c-1.31-63.26,8.52-98.93-107.08-98.93h-58.09c-23.1,0-45.6-6.91-64.86-19.67-111.16-73.71-249.84-136.27-365.69-177.7,0,0-36.08-13.24-147.8-13.24-197.74,0-321.12,14.76-335.39,18.28-175.58,43.33-389.19,230.81-389.19,230.81,0,0-152.74,13.83-354.44,105.17-63.51,28.76-91.65,69.33-118.7,115.07,263.22-99.17,937.85-155.53,1941.24-159.79Z"/>
                    <g>
                      <path class="cls-30" d="m185.27,2170.33c-7.47,12.49-13.66,25.61-17.94,39.52-4.2,13.63-25.82,12.12-31.98,18.97h452.11c202.28,0,290.93-24.37,319.98-58.49H185.27Z"/>
                      <path class="cls-30" d="m2734.14,2163.34c-13.01-17.47-22.7-38.81-22.7-61.91,0-24.82,1.08-47.24.84-67.06h-115.67c0,34.83,66.11,131.23,148.6,150-2.85-8.35-6.84-15.34-11.07-21.02Z"/>
                    </g>
                  </g>
                  <path class="cls-5" d="m2116.51,1734.63s-36.08-13.24-147.8-13.24c-197.74,0-321.12,14.76-335.39,18.28-175.58,43.33-389.19,230.81-389.19,230.81,0,0-152.74,13.83-354.44,105.17-23.34,10.57-41.88,22.75-57.37,36.18,339.13-150.95,1129.08-207.59,1608.06-225.94-102.84-62.2-222.15-114.88-323.86-151.26Zm-1547.23,235.85s-216.27,36.96-334.43,141.35c0,0,411.08-26.22,589.11-144.92h-249.49c-3.28,2.25-5.19,3.57-5.19,3.57Z"/>
                  <g>
                    <g>
                      <rect class="cls-12" x="1326.21" y="2179.57" width="25.12" height="29.53"/>
                      <rect class="cls-12" x="1376.46" y="2179.57" width="25.12" height="29.53"/>
                      <rect class="cls-12" x="1426.7" y="2179.57" width="25.12" height="29.53"/>
                      <rect class="cls-12" x="1476.95" y="2179.57" width="25.12" height="29.53"/>
                      <rect class="cls-12" x="1527.2" y="2179.57" width="25.12" height="29.53"/>
                      <rect class="cls-12" x="1301.09" y="2150.04" width="25.12" height="29.53"/>
                      <rect class="cls-12" x="1351.33" y="2150.04" width="25.12" height="29.53"/>
                      <rect class="cls-12" x="1401.58" y="2150.04" width="25.12" height="29.53"/>
                      <rect class="cls-12" x="1451.83" y="2150.04" width="25.12" height="29.53"/>
                      <rect class="cls-12" x="1502.07" y="2150.04" width="25.12" height="29.53"/>
                      <rect class="cls-12" x="1552.32" y="2150.04" width="25.12" height="29.53"/>
                    </g>
                    <g>
                      <rect class="cls-12" x="1577.44" y="2179.57" width="25.12" height="29.53"/>
                      <rect class="cls-12" x="1627.69" y="2179.57" width="25.12" height="29.53"/>
                      <rect class="cls-12" x="1677.94" y="2179.57" width="25.12" height="29.53"/>
                      <rect class="cls-12" x="1728.18" y="2179.57" width="25.12" height="29.53"/>
                      <rect class="cls-12" x="1778.43" y="2179.57" width="25.12" height="29.53"/>
                      <rect class="cls-12" x="1828.67" y="2179.57" width="25.12" height="29.53"/>
                      <rect class="cls-12" x="1602.57" y="2150.04" width="25.12" height="29.53"/>
                      <rect class="cls-12" x="1652.81" y="2150.04" width="25.12" height="29.53"/>
                      <rect class="cls-12" x="1703.06" y="2150.04" width="25.12" height="29.53"/>
                      <rect class="cls-12" x="1753.3" y="2150.04" width="25.12" height="29.53"/>
                      <rect class="cls-12" x="1803.55" y="2150.04" width="25.12" height="29.53"/>
                      <rect class="cls-12" x="1853.8" y="2150.04" width="25.12" height="29.53"/>
                    </g>
                    <g>
                      <rect class="cls-12" x="1878.92" y="2179.57" width="25.12" height="29.53"/>
                      <rect class="cls-12" x="1929.17" y="2179.57" width="25.12" height="29.53"/>
                      <rect class="cls-12" x="1979.41" y="2179.57" width="25.12" height="29.53"/>
                      <rect class="cls-12" x="2029.66" y="2179.57" width="25.12" height="29.53"/>
                      <rect class="cls-12" x="2079.91" y="2179.57" width="25.12" height="29.53"/>
                      <rect class="cls-12" x="2130.15" y="2179.57" width="25.12" height="29.53"/>
                      <rect class="cls-12" x="1904.04" y="2150.04" width="25.12" height="29.53"/>
                      <rect class="cls-12" x="1954.29" y="2150.04" width="25.12" height="29.53"/>
                      <rect class="cls-12" x="2004.54" y="2150.04" width="25.12" height="29.53"/>
                      <rect class="cls-12" x="2054.78" y="2150.04" width="25.12" height="29.53"/>
                      <rect class="cls-12" x="2105.03" y="2150.04" width="25.12" height="29.53"/>
                      <rect class="cls-12" x="2155.28" y="2150.04" width="25.12" height="29.53"/>
                    </g>
                  </g>
                  <path class="cls-12" d="m919.31,2123.27h-171.84c-94.9,0-153.52,16.54-189.52,35.27-8.64,4.49-18.13,7.1-27.87,7.1H254.5c-4.92-6.92-8.94-14.85-11.28-23.99-2.55-9.99-10.72-17.38-20.8-18.21-25.39,25.08-45.05,53.75-55.1,86.42-.14.46-.37.84-.55,1.27h592.45c32.03,0,130.29-21.74,169.34-54.6,12.43-10.46,6.09-33.26-9.26-33.26Z"/>
                  <g>
                    <path class="cls-9" d="m612.38,2205.85h130.21c76.09,0,156.93-27.61,183.43-50.92,10.5-9.24,4.65-29.52-8.33-29.52h-145.03c-141.19,0-231.6,80.44-160.28,80.44Z"/>
                    <path class="cls-27" d="m720.52,2199.69c104.66,2.67,132.26-18.41,169.85-40.11,12.6-7.28,5.58-23.25-10-23.25h-32.41c-88.33,0-123.62,34.67-136.1,52.96-3.4,4.98,1.54,10.21,8.65,10.39Z"/>
                    <path class="cls-19" d="m655.25,2184.22c42.08-2.81,126.53-16.13,162.49-35.14,12.06-6.38,5.34-20.37-9.56-20.37h-31c-84.5,0-118.27,30.38-130.2,46.41-3.25,4.37,1.48,9.56,8.28,9.1Z"/>
                  </g>
                  <g>
                    <path class="cls-34" d="m2591.59,2001.62c-5.71,0-9.13,7.4-5.99,12.97l20.96,37.25c17.17,30.5,46.34,48.87,77.6,48.87h27.63c6.74-14.6,7.39-31.48,7.39-49.55s-.65-34.95-7.39-49.55h-120.2Z"/>
                    <g>
                      <path class="cls-4" d="m2629.15,2027.57c-3.8,0-6.08,4.93-4,8.64l13.97,24.83c11.44,20.33,30.88,32.57,51.72,32.57h0c12.53,0,22.89-11.56,23.27-26.17.06-2.25.07-4.54.07-6.85,0-.12,0-.24,0-.36-.01-18.08-12.73-32.66-28.22-32.66h-56.81Z"/>
                      <path class="cls-13" d="m2627.82,2006.11c-2.75,0-4.4,3.57-2.89,6.25l10.1,17.95c8.27,14.7,22.32,23.55,37.39,23.55h0c9.05,0,16.55-8.36,16.82-18.92.04-1.63.05-3.28.05-4.95,0-.09,0-.17,0-.26,0-13.07-9.2-23.61-20.4-23.61h-41.07Z"/>
                    </g>
                    <path class="cls-12" d="m2711.79,2102.92h-27.63c-32,0-61.6-18.64-79.18-49.87l-20.96-37.25c-1.86-3.31-2.01-7.35-.4-10.83,1.61-3.48,4.59-5.55,7.97-5.55h120.2c1.04,0,1.89.98,1.89,2.2s-.84,2.2-1.89,2.2h-120.2c-1.98,0-3.72,1.21-4.65,3.24-.94,2.03-.85,4.39.23,6.32l20.96,37.25c16.88,29.98,45.3,47.88,76.03,47.88h27.63c1.04,0,1.89.98,1.89,2.2s-.84,2.2-1.89,2.2Z"/>
                  </g>
                  <g>
                    <path class="cls-9" d="m168.73,2205.81c3.4.02,7.69.03,13.41.03,45.37,0,71.25-16.17,59.29-64.87-2.26-9.19-11.59-14.66-21.07-15.41-23.32,23.52-41.54,50.17-51.63,80.25Z"/>
                    <path class="cls-27" d="m191.36,2200.73c2,.01,4.53.02,7.89.02,26.71,0,41.95-8.92,34.9-35.78-1.33-5.07-6.82-8.08-12.4-8.5-13.73,12.97-24.45,27.67-30.4,44.26Z"/>
                    <path class="cls-19" d="m192.77,2167.26c1.87.01,4.24.02,7.4.02,25.02,0,39.3-7.56,32.7-30.32-1.24-4.29-6.39-6.85-11.62-7.2-12.86,10.99-22.91,23.44-28.48,37.5Z"/>
                  </g>
                  <path class="cls-12" d="m734.88,2399.48H178.49c-5.07,0-9.74-2.94-11.83-7.55-.24-.54-.48-1.07-.72-1.61-16.24-36.3,10.8-77.23,50.57-77.23h428.01c44.07,0,84.34,24.94,103.98,64.39h0c5.03,10.11-2.32,21.99-13.62,21.99Z"/>
                  <path class="cls-12" d="m1506.99,1765.21h-570.58c-166.1,65.69-363.53,202.77-366.95,205.15h603.52c18.9,0,37.15-6.54,51.76-18.52,45.59-37.41,155.39-122.85,268.37-175.86,5.49-2.58,19.95-10.76,13.88-10.76Z"/>
                  <g>
                    <path class="cls-29" d="m2084.71,1762.32c-2.26-.36-69.3-12.87-169.79-12.87-225.3,0-301.45,20.45-302.19,20.65-116.11,32.96-236.53,141.5-308.49,206.35-9.74,8.78-18.7,16.85-26.76,23.95-1.67,1.47-1.99,3.99-.84,6.74,1.03,2.48,3.36,4.99,6.27,4.99l1057.7-68.35c-23.39-39.58-156.28-134.15-255.9-181.47Z"/>
                    <path class="cls-29" d="m600.28,1949.58h555.43c31.61,0,62.31-10.39,87.37-29.66,51.41-39.55,128.88-94.48,209.8-134.99h-562.76c-115.07,52.16-234.92,128.32-289.83,164.65Z"/>
                  </g>
                  <g>
                    <path class="cls-18" d="m770.09,1921.1c-15.11,7.1-27.25,16.97-35.61,28.48h421.22c7.17,0,14.28-.61,21.3-1.66,9.83-48.61,22.92-97.88,40.32-145.36-104.76,3.94-149.86,11.49-163.63,14.35-82.77,17.19-189.53,60.02-283.6,104.19Zm593.94-121.02c-27.62,0-52.94.22-76.2.61-14.13,36.06-25.5,73.69-34.7,111.54,44.34-33.59,104.92-76.08,169.63-111.52-17.08-.39-36.52-.63-58.73-.63Zm172.9,9.58c-1.07-.3-4.53-1.16-11.76-2.26-75.87,41.87-147.72,103.5-200.61,150.79l247.97-12.18c7.28-35.54,16.25-71.26,27.46-106.19-20.3-11.2-41.56-21.56-63.05-30.17Zm168.06,101.55c-24.85-20.89-58.77-45.09-96.59-66.68-10.54,33.25-19.11,67.2-26.09,101.01l107.38-5.27c18.95-.93,28.11-18.29,15.3-29.06Z"/>
                    <path class="cls-18" d="m1791.95,1779.7c-13.97,0-22.17,15.71-14.18,27.17l23.33,33.44c22.88,32.8,60.35,52.35,100.34,52.35h388.24c-44.89-36.68-110.65-80.66-170.77-112.95h-326.96Z"/>
                    <path class="cls-8" d="m1881.04,1938.93h-6.96l1.99-18.35c15.71,0,28.85-10.46,27.71-22.05l-2.78-28.48c-1.9-19.48-22.78-33.87-49.18-33.87h-44.59c-26.39,0-50.4,14.38-56.53,33.87l-8.97,28.48c-3.65,11.59,7.22,22.05,22.93,22.05h8.32l-1.99,18.35h-15.28c-32.36,0-61.12,18.91-65.47,43.05l-.7,3.89,245.82-15.89c-6.14-18.11-27.58-31.05-54.33-31.05Zm240.46,0c-22.36,0-42.99,9.03-55.05,22.58l215.1-13.9c-9.46-5.44-21.42-8.68-34.73-8.68h-6.96l1.99-18.35c15.71,0,28.85-10.46,27.71-22.05l-2.29-23.49c-16.75-12.71-35.33-25.89-54.78-38.86h-39.46c-26.39,0-50.4,14.38-56.53,33.87l-8.97,28.48c-3.65,11.59,7.22,22.05,22.93,22.05h8.32l-1.99,18.35h-15.28Z"/>
                    <path class="cls-3" d="m1365.21,1834.57c-8.84-10.18-23.42-16.64-40.33-16.64h-44.59c-26.39,0-50.4,15.62-56.53,36.78l-8.97,30.94c-3.65,12.59,7.22,23.95,22.93,23.95h8.32l-.87,8.73c32.04-24.57,73.78-54.77,120.04-83.75Zm354.66,94.95h-6.96l1.99-19.93c15.71,0,28.85-11.36,27.71-23.95l-2.78-30.94c-1.91-21.16-22.78-36.78-49.18-36.78h-44.59c-26.39,0-50.4,15.62-56.53,36.78l-8.97,30.94c-3.65,12.59,7.22,23.95,22.92,23.95h8.33l-1.99,19.93h-15.28c-32.36,0-61.12,20.54-65.47,46.75l-3.35,20.17,250.12-16.16.14-4.01c.89-26.22-23.76-46.75-56.13-46.75Zm-491.2,0c-18.78.02-36.31,6.99-48.58,17.94,17.15-2.95,33.58-9.06,48.58-17.94Zm128.37.11c-19.45,16.82-37.3,32.86-52.79,46.82-9.74,8.78-18.7,16.85-26.76,23.95-1.67,1.47-1.99,3.99-.84,6.74,1.03,2.48,3.36,4.99,6.27,4.99l126.35-8.16.94-27.7c.86-25.41-22.29-45.42-53.18-46.64Z"/>
                    <path class="cls-7" d="m695.14,1924.03c-18.1,0-54.5,10.41-74.28,25.55h534.84c29.23,0,57.61-8.98,81.55-25.55h-542.11Z"/>
                  </g>
                  <path class="cls-13" d="m1662.95,1866.76c.71-.21,73.13-20.65,287.43-20.65,95.57,0,159.34,12.51,161.49,12.87,45.84,22.89,99.06,56.84,144.33,90.27l84.41-5.45c-23.39-39.58-156.28-134.15-255.9-181.47-2.26-.36-69.3-12.87-169.79-12.87-225.3,0-301.45,20.45-302.19,20.65-116.11,32.96-236.53,141.5-308.49,206.35-9.74,8.78-18.7,16.85-26.76,23.95-1.67,1.47-1.99,3.99-.84,6.74,1.03,2.48,3.36,4.99,6.27,4.99l164.69-10.64c63.14-54.85,140.18-112.3,215.34-134.74Z"/>
                  <path class="cls-13" d="m1183.29,1853.72h152.22c36.28-24.05,76.37-48.27,117.36-68.79h-562.76c-115.07,52.16-234.92,128.32-289.83,164.65h168.25c128.77-62.73,270.52-95.86,414.76-95.86Z"/>
                  <g>
                    <g>
                      <g>
                        <path class="cls-12" d="m2346.16,1944.81c-18.46-38.29-156.73-137.62-259.56-186.46-.16-.08-.34-.14-.52-.18-.68-.13-68.98-13.12-171.15-13.12-227.4,0-302.64,20.61-303.38,20.82-117.1,33.24-238,142.21-310.24,207.32-9.73,8.77-18.68,16.83-26.72,23.92-3.1,2.73-3.87,7.23-1.99,11.73,1.62,3.9,5.41,7.7,10.33,7.7.21,0,.42,0,.63-.02l1060.77-68.56c.73-.05,1.39-.46,1.76-1.09.37-.63.4-1.41.08-2.06Zm-921.79-53.63c58.98-46,126.42-89.77,191.86-108.35.58-.16,46.57-12.23,170.97-17.62,6.34,63.18,8.67,132.09,8.51,200.57l-420.89,27.21c0-39.75,18.2-77.36,49.55-101.81Zm433.13,70.6c0-67.29-2.38-135.23-8.54-198.49,20.42-.41,42.32-.64,65.97-.64,91.92,0,155.19,10.54,165.91,12.45,17.91,8.57,36.66,18.59,55.48,29.4,6.54,44.74,10.7,91.48,13.1,138.41l-291.92,18.87Zm428.43-27.7l-127.74,8.26c-2.29-44.75-6.2-89.31-12.2-132.19,55.95,32.93,111.53,72.27,147.1,102.75,8.2,7.03,3.62,20.49-7.16,21.18Z"/>
                        <g>
                          <path class="cls-10" d="m1481.85,2059.47c0-9.93-8.54-24.95-19.06-33.54l-25.92-21.14c-14.92-12.17-28.96-20.05-41.2-23.76-21.36-6.47-37.19-.17-42.88,18.1l-22.67-18.49c-2.04-1.66-3.69-1.45-3.69.47v13.78c0,1.92,1.65,4.82,3.69,6.49l96.6,78.79c1.51,1.23,2.8,1.42,3.38.66l11.04,9.01c22.49,18.35,40.72,16.01,40.72-5.21v-19.77h0v-5.39Z"/>
                          <g>
                            <path class="cls-32" d="m1421.59,1914.52h43.57c9.21,0,16.69,7.48,16.69,16.69v29.24c0,19.67-15.97,35.65-35.65,35.65h-100.29v-5.9c0-41.77,33.91-75.68,75.68-75.68Z"/>
                            <path class="cls-5" d="m1433.82,1937.9h48.03v-5.39c0-9.94-6.93-17.99-15.48-17.99h-50.25c-38.77,0-70.21,36.52-70.21,81.58h7.76c14.54-34.43,44.92-58.19,80.16-58.19Z"/>
                            <path class="cls-12" d="m1329.65,1977.45h65.21c8.84,0,16.02,7.18,16.02,16.02v1.5c0,1.78-1.45,3.23-3.23,3.23h-77.99c-1.78,0-3.23-1.45-3.23-3.23v-14.29c0-1.78,1.45-3.23,3.23-3.23Z"/>
                          </g>
                        </g>
                      </g>
                      <g>
                        <g>
                          <ellipse class="cls-10" cx="1762.94" cy="2053.66" rx="32.85" ry="22.98"/>
                          <g class="cls-37">
                            <rect class="cls-20" x="1717.49" y="2040.7" width="82.66" height="25.92" rx="12.96" ry="12.96"/>
                          </g>
                          <rect class="cls-12" x="1725.61" y="2040.7" width="82.66" height="25.92" rx="12.96" ry="12.96"/>
                        </g>
                        <g>
                          <ellipse class="cls-10" cx="2257.64" cy="2036.72" rx="32.85" ry="22.98"/>
                          <g class="cls-37">
                            <path class="cls-20" d="m2281.89,2049.68h-56.74c-7.16,0-12.96-5.8-12.96-12.96h0c0-7.16,5.8-12.96,12.96-12.96h56.74c7.16,0,12.96,5.8,12.96,12.96h0c0,7.16-5.8,12.96-12.96,12.96Z"/>
                          </g>
                          <path class="cls-12" d="m2290.01,2049.68h-56.74c-7.16,0-12.96-5.8-12.96-12.96h0c0-7.16,5.8-12.96,12.96-12.96h56.74c7.16,0,12.96,5.8,12.96,12.96h0c0,7.16-5.8,12.96-12.96,12.96Z"/>
                        </g>
                      </g>
                    </g>
                    <g>
                      <path class="cls-12" d="m1799.75,2406.8c-.09,0-.18,0-.27-.02-1.21-.15-2.07-1.25-1.92-2.45.47-3.83,46.56-386.18,16.76-655.41-.13-1.21.74-2.3,1.94-2.43,1.27-.11,2.3.74,2.43,1.95,29.85,269.74-16.3,652.59-16.77,656.42-.14,1.12-1.09,1.93-2.18,1.93Z"/>
                      <path class="cls-12" d="m2031.6,2407.56h-694.46c-10.55,0-19.77-8.15-21.43-18.96-43.68-284.24,10.27-436.23,10.82-437.73.13-.34.33-.64.6-.89,79.3-70.65,183.3-155.43,284.41-184.13.74-.21,75.98-20.82,303.38-20.82,102.18,0,170.48,12.99,171.16,13.12.18.04.36.09.52.18,102.82,48.84,241.09,148.17,259.55,186.46.2.41.27.88.19,1.33l-14.28,81.78c-6.37,36.46-42.29,65.35-57.44,76.08-133.98,93.63-156.05,163.34-173.78,219.36-5.97,18.85-11.6,36.65-20.79,53.43-10.55,19.27-28.66,30.78-48.44,30.78Zm-701.11-454.67c-3.4,9.87-52.65,160.27-10.43,435.04,1.33,8.68,8.68,15.23,17.08,15.23h694.46c18.15,0,34.82-10.65,44.58-28.49,8.98-16.41,14.55-34.01,20.45-52.64,17.93-56.65,40.25-127.16,175.45-221.63,14.69-10.41,49.55-38.39,55.64-73.23l14.16-81.07c-17.53-34.24-149.15-132.41-256.91-183.65-4.78-.89-71.58-12.99-170.05-12.99-226.8,0-301.45,20.44-302.18,20.65-100.07,28.4-203.36,112.53-282.26,182.79Z"/>
                    </g>
                  </g>
                  <g>
                    <path class="cls-32" d="m1668.47,1728.65h-271.27l12.84-103.6c1.07-8.63,8.4-15.1,17.09-15.1h211.4c8.69,0,16.02,6.48,17.09,15.1l12.84,103.6Z"/>
                    <path class="cls-6" d="m1668.47,1728.65l-12.85-103.6c-.26-2.11-.91-4.09-1.84-5.87h-17.21c-8.69,0-16.02,6.48-17.09,15.1l9.71,94.38h39.29Z"/>
                    <path class="cls-12" d="m1392.33,1706.78h281.02c4.78,0,8.66,3.88,8.66,8.66v13.22h-298.33v-13.22c0-4.78,3.88-8.66,8.66-8.66Z"/>
                    <g>
                      <path class="cls-12" d="m1421.2,1647.46l.03-7.97h41.43l-.03,7.97h-16.26l.13,44.56h-9.25l-.13-44.56h-15.92Z"/>
                      <path class="cls-12" d="m1502.93,1639.49l20.52,52.52h-10.43l-5.3-14.74h-20.02c-.49,1.26-.96,2.5-1.39,3.71-.44,1.23-.87,2.43-1.29,3.64-.42,1.21-.84,2.42-1.26,3.65-.42,1.23-.85,2.48-1.28,3.73h-9.7l20.05-52.52h10.12Zm1.68,29.71l-6.91-19.28-6.75,19.28h13.66Z"/>
                      <path class="cls-12" d="m1534.44,1639.49h11.19l11.56,18.42,12.01-18.42h10.54l-17.18,25.51,18.34,27.01h-11.3l-12.48-19.26-12.9,19.26h-10.67l17.89-27.12-16.99-25.41Z"/>
                      <path class="cls-12" d="m1604.91,1639.49l.08,52.52h-9.25l-.08-52.52h9.25Z"/>
                    </g>
                  </g>
                </g>
              </g>
            </g>
            <path class="cls-35" d="m1929.08,88.17h-576.58c-59.99,0-108.62,48.63-108.62,108.62v2260.3c0,59.99,48.63,108.62,108.62,108.62h447.65c-325.82-1268.68,11.13-2193,128.93-2477.54Z"/>
          </g>
          <g>
            <g class="cls-37">
              <path class="cls-27" d="m2061.15,797.97c0,131.17,77.94,516.57,183.27,631.95-38.85,98.13-85.71,170.15-136.15,170.15-134.23,0-243.05-509.95-243.05-664.95s101.76-272.33,229.85-280.24c-21.55,41.9-33.92,90.83-33.92,143.09Z"/>
              <path class="cls-27" d="m2351.33,935.12c0,19.05-1.64,43.47-4.78,71.64-.42,3.83-.88,7.73-1.36,11.7-4.97,40.99-12.84,88.98-23.19,139.5-13.44,65.69-31.07,135.65-51.93,200.09-80.61-157.75-136.09-449.41-136.09-560.08,0-49.33,11.03-95.69,30.39-135.98,15.13,4.12,29.71,9.88,43.6,17.1,10.94,5.69,21.45,12.29,31.46,19.72,67.3,49.9,111.9,137.09,111.9,236.31Z"/>
            </g>
            <g>
              <g>
                <path class="cls-16" d="m2270.07,1358.05c-8.08,24.98-16.66,49.12-25.65,71.87-105.33-115.38-183.27-500.78-183.27-631.95,0-52.26,12.37-101.19,33.92-143.09,4.37-.27,8.77-.41,13.2-.41,19.31,0,38.09,2.6,56.1,7.52-19.36,40.29-30.39,86.65-30.39,135.98,0,110.67,55.48,402.33,136.09,560.08Z"/>
                <path class="cls-16" d="m2377.03,517.31c-91.51,0-171.2,58.4-212.66,144.68-18.01-4.92-36.79-7.52-56.1-7.52-4.43,0-8.83.14-13.2.41,42.35-82.36,120.16-137.57,209.13-137.57h72.83Z"/>
                <path class="cls-16" d="m2620.09,797.97c0,154.99-108.83,664.95-243.06,664.95h-72.83c-20.63,0-40.66-12.05-59.78-33,8.99-22.75,17.57-46.89,25.65-71.87-80.61-157.75-136.09-449.41-136.09-560.08,0-49.33,11.03-95.69,30.39-135.98,41.46-86.28,121.15-144.68,212.66-144.68,134.23,0,243.06,125.66,243.06,280.66Z"/>
                <path class="cls-28" d="m2620.09,797.97c0,154.99-108.83,664.95-243.06,664.95-38.38,0-74.69-41.7-106.96-104.87-80.61-157.75-136.09-449.41-136.09-560.08,0-49.33,11.03-95.69,30.39-135.98,41.46-86.28,121.15-144.68,212.66-144.68,134.23,0,243.06,125.66,243.06,280.66Z"/>
              </g>
              <path class="cls-25" d="m2373.68,572c107.33,0,194.36,100.46,194.36,224.43s-87.03,381.19-194.36,381.19-194.36-257.25-194.36-381.19,87.03-224.43,194.36-224.43Z"/>
              <g>
                <path class="cls-26" d="m2414.49,572h-40.81c-107.33,0-194.36,100.46-194.36,224.43s87.03,224.43,194.36,224.43h40.81c107.33,0,194.36-100.49,194.36-224.43s-87.03-224.43-194.36-224.43Z"/>
                <ellipse class="cls-23" cx="2414.49" cy="796.43" rx="194.36" ry="224.43"/>
              </g>
            </g>
          </g>
        </g>
      </g>
    </g>
  </g>
</svg>